<svg width="25" height="25" viewBox="0 0 25 25" fill="none" xmlns="http://www.w3.org/2000/svg">
<path fill-rule="evenodd" clip-rule="evenodd" d="M0.600098 4.71658C0.600098 3.93423 1.23432 3.3 2.01668 3.3H6.71835C7.0921 3.3 7.43204 3.44474 7.68517 3.68123H24.3998V7.97071L23.2374 7.86585L22.5496 8.32437L21.5331 8.07022L20.7639 8.58297L19.8744 8.32882L19.1187 8.83266L18.1275 8.58486L17.3328 9.24712L16.4248 8.85801L15.5616 9.47464L14.6645 9.21833L13.902 9.72662L13.0125 9.47247L12.2501 9.98076L11.3606 9.72662L10.6048 10.2305L9.61365 9.98265L8.82855 10.6369L7.80699 10.2538L7.1792 10.7561L6.34576 10.4782C6.26156 11.1802 5.66399 11.7243 4.93934 11.7243H2.01668C1.23432 11.7243 0.600098 11.0901 0.600098 10.3078V4.71658ZM8.13493 4.71658C8.13493 4.6364 8.12826 4.55777 8.11546 4.48123H23.5998V7.14599L23.2374 6.90437L22.4003 7.46242L21.3838 7.20828L20.628 7.71211L19.7385 7.45797L18.9694 7.97071L17.9274 7.71022L17.1973 8.31868L16.3262 7.94536L15.4105 8.59945L14.5285 8.34747L13.7661 8.85576L12.8766 8.60162L12.1142 9.10991L11.2247 8.85576L10.4555 9.36851L9.41358 9.10802L8.67382 9.72448L7.66222 9.34514L7.01929 9.85948L6.35591 9.63835V7.02266H6.71835C7.5007 7.02266 8.13493 6.38844 8.13493 5.60609V4.71658ZM1.99756 5.98727C1.99756 5.2751 2.57489 4.69777 3.28706 4.69777C3.99924 4.69777 4.57657 5.2751 4.57657 5.98727V8.78287C4.57657 9.49504 3.99924 10.0724 3.28706 10.0724C2.57489 10.0724 1.99756 9.49504 1.99756 8.78287V5.98727ZM10.875 11.7H10.4784L3 14.8844V15.4889V17.6742L1 18.5987V19.2645V21.7H13.3333L24 16.7996V14.5141V14.2385V11.7H23.672H10.875ZM2.59368 18.5696L4.49842 17.7H7.59176C6.60847 17.9223 5.58554 18.2853 4.87904 18.5696H2.59368ZM10.488 17.9473C10.397 17.8443 10.2879 17.7632 10.167 17.7H15.1069L13.2617 18.5696H10.7441C10.7221 18.3252 10.6367 18.1155 10.488 17.9473ZM13.3333 19.2652L18.7629 16.725L23.3333 14.7956V16.258L13.3333 20.9705V19.2652ZM10.875 12.3316H10.6157L9.4441 12.8211C9.52693 12.8632 9.62465 12.896 9.73673 12.9182C9.98758 12.9678 10.2867 12.9586 10.5841 12.8966C10.8812 12.8346 11.1619 12.7231 11.3769 12.5814C11.4994 12.5006 11.5923 12.4158 11.6571 12.3316H10.875ZM12.2211 12.3316C12.1248 12.6094 11.9041 12.8327 11.652 12.9988C11.3758 13.1809 11.034 13.3135 10.6861 13.386C10.3385 13.4585 9.97008 13.474 9.63968 13.4087C9.36733 13.3548 9.10425 13.242 8.90867 13.0448L7.748 13.5297C7.76795 13.5506 7.79501 13.5735 7.83152 13.5979C8.00999 13.717 8.33003 13.8131 8.74906 13.8587C9.58064 13.949 10.6567 13.826 11.3924 13.4744C11.9181 13.2232 12.5563 13.0762 13.1611 13.0239C13.7632 12.9718 14.3585 13.0112 14.7963 13.154C15.0136 13.225 15.2163 13.3291 15.3554 13.4829C15.505 13.6482 15.5708 13.8617 15.5135 14.0985C15.4605 14.3174 15.3086 14.5304 15.0867 14.739C15.045 14.7781 15.0002 14.8178 14.9521 14.8579H16.3826L18.0951 14.1076C18.032 14.1001 17.9661 14.0944 17.8978 14.0902C17.6967 14.0778 17.4883 14.0789 17.2789 14.0808L17.2425 14.0812C17.0487 14.0831 16.8522 14.0849 16.6746 14.0746C16.4887 14.0637 16.2983 14.0385 16.1382 13.9718C15.9693 13.9014 15.8169 13.7761 15.7557 13.5671C15.6992 13.374 15.7351 13.1551 15.8224 12.9227C15.8867 12.7514 15.9855 12.5557 16.1207 12.3316H12.2211ZM22.1482 12.3316L19.9175 13.3091C19.4648 12.996 18.9518 12.9157 18.5875 12.8587C18.5221 12.8485 18.4614 12.839 18.4068 12.8291C18.2957 12.8088 18.2163 12.7891 18.16 12.7658C18.1331 12.7547 18.1167 12.7449 18.107 12.7376C18.0982 12.7309 18.0955 12.7266 18.0955 12.7266C18.0955 12.7266 18.0933 12.7231 18.0919 12.7133C18.0904 12.7021 18.0896 12.6813 18.0952 12.6472C18.1065 12.5793 18.1401 12.478 18.2135 12.3316H22.1482ZM18.5287 13.3568C18.798 13.4007 19.0795 13.4466 19.3444 13.5602L18.8265 13.7871C18.547 13.6563 18.2267 13.6095 17.9286 13.5911C17.7074 13.5775 17.4822 13.5789 17.2743 13.5809L17.2441 13.5812C17.0443 13.5831 16.8637 13.5848 16.7038 13.5754C16.533 13.5654 16.411 13.5438 16.3306 13.5103C16.259 13.4804 16.243 13.452 16.2356 13.4267C16.2235 13.3854 16.2189 13.2891 16.2905 13.0984C16.3605 12.912 16.4924 12.6642 16.7086 12.3382L16.6987 12.3316H17.6672C17.6363 12.414 17.6142 12.4918 17.602 12.5653C17.5777 12.7117 17.5903 12.8578 17.6681 12.986C17.744 13.1111 17.8604 13.1831 17.9691 13.228C18.0768 13.2724 18.1995 13.2995 18.3172 13.321C18.3865 13.3336 18.4572 13.3451 18.5287 13.3568ZM6.61185 14.0043L7.27553 13.7271C7.34244 13.8456 7.44318 13.9398 7.55392 14.0138C7.8325 14.1997 8.24842 14.3072 8.69505 14.3557C9.59477 14.4535 10.7688 14.3266 11.6079 13.9256C12.0665 13.7065 12.643 13.5706 13.2042 13.522C13.768 13.4732 14.2899 13.5148 14.6412 13.6294C14.8183 13.6872 14.9281 13.7558 14.9846 13.8183C15.0306 13.8691 15.0434 13.9152 15.0276 13.9808C15.0074 14.0642 14.9342 14.1961 14.7443 14.3746C14.5923 14.5175 14.3775 14.6789 14.0868 14.8579H13.7107C13.7345 14.8035 13.7508 14.7409 13.7511 14.6713C13.7515 14.5699 13.7179 14.4762 13.6627 14.3933C13.5599 14.2392 13.3705 14.1058 13.1118 13.9764C13.0042 13.9227 12.8788 13.9241 12.787 13.9323C12.6841 13.9415 12.5679 13.9654 12.4479 13.9972C12.2069 14.0611 11.9224 14.1648 11.6443 14.2819C11.3654 14.3995 11.0861 14.5334 10.8547 14.6606C10.7378 14.7248 10.6245 14.7918 10.5277 14.8579H8.00241C7.49409 14.7384 7.10635 14.5558 6.86789 14.3667C6.70852 14.2403 6.63828 14.1292 6.6184 14.0536C6.61404 14.037 6.61155 14.0208 6.61185 14.0043ZM6.14054 14.2013L4.56878 14.8579H6.69391C6.64554 14.8255 6.59992 14.7923 6.55718 14.7584C6.36035 14.6023 6.20308 14.4142 6.14054 14.2013ZM11.5768 14.8579H13.022L13.0487 14.8384C13.0634 14.8277 13.0775 14.8174 13.0898 14.8082C13.1767 14.7435 13.2241 14.7003 13.2456 14.6691C13.2173 14.628 13.1289 14.5453 12.8991 14.4292C12.8927 14.4286 12.8718 14.4267 12.8315 14.4303C12.7678 14.436 12.6818 14.4524 12.5761 14.4805C12.3657 14.5363 12.1045 14.6306 11.8384 14.7427C11.7505 14.7798 11.6627 14.8185 11.5768 14.8579ZM23.3438 12.505L16.4531 15.4895V17.0377L23.3438 14.0224V12.505ZM15.7969 15.4895H3.65625V17.0684H15.7969V15.4895ZM10.2409 18.5696C10.2221 18.441 10.1752 18.3483 10.1134 18.2784C10.029 18.1829 9.89579 18.1061 9.70172 18.0566C9.30583 17.9557 8.73459 17.9876 8.08201 18.1091C7.50985 18.2157 6.90137 18.3859 6.33942 18.5696H10.2409ZM12.6667 19.2652H1.66667V21.0044H12.6667V19.2652Z" fill="#1F4293"/>
</svg>
