<svg width="24" height="19" fill="none" xmlns="http://www.w3.org/2000/svg"><path d="M21.698 18.044H2.295A2.302 2.302 0 010 15.742V2.324A2.302 2.302 0 012.295.022h19.403a2.302 2.302 0 012.287 2.302v13.44a2.302 2.302 0 01-2.287 2.28zM2.295 1.045a1.257 1.257 0 00-1.257 1.279v13.44a1.257 1.257 0 001.257 1.257h19.403a1.257 1.257 0 001.25-1.257V2.324a1.257 1.257 0 00-1.25-1.257L2.295 1.045z" fill="#0C4DB9"/><path d="M9.275 15.391h-5.16a1.462 1.462 0 01-1.462-1.462v-2.192a.519.519 0 011.038 0v2.192a.424.424 0 00.424.424h5.16a.528.528 0 01.541.738.526.526 0 01-.541.307v-.007zM19.871 15.391H14.72a.526.526 0 110-1.045h5.152a.424.424 0 00.424-.424V11.73a.526.526 0 011.045 0v2.192a1.46 1.46 0 01-1.469 1.47zM20.814 6.818a.52.52 0 01-.519-.518V4.107a.424.424 0 00-.424-.424H14.72a.526.526 0 110-1.045h5.152A1.461 1.461 0 0121.333 4.1v2.192a.519.519 0 01-.519.526zM3.172 6.818a.519.519 0 01-.519-.518V4.107a1.462 1.462 0 011.462-1.462h5.16a.526.526 0 110 1.046h-5.16a.424.424 0 00-.424.423v2.193a.519.519 0 01-.519.511z" fill="#0C4DB9"/></svg>