<svg width="24" height="24" fill="none" xmlns="http://www.w3.org/2000/svg"><path d="M14.051 9.876a.36.36 0 00.505 0l6.692-6.734a.367.367 0 000-.51.354.354 0 00-.252-.103.337.337 0 00-.252.108l-6.699 6.729a.361.361 0 00.006.51zM19.939 9.996a.367.367 0 00.392.075.36.36 0 00.118-.08l1.838-1.85a.367.367 0 000-.511.355.355 0 00-.504.006l-1.845 1.85a.366.366 0 000 .51zM14.28 6.554a.36.36 0 00.505 0l3.604-3.634a.336.336 0 00.108-.253.36.36 0 00-.613-.252L14.28 6.02a.355.355 0 000 .534zM21.002 5.419l-3.604 3.604a.36.36 0 00.51.505l3.605-3.635a.36.36 0 00-.511-.504v.03zM4.728 19.74a.354.354 0 00.252-.101l1.148-1.148a.355.355 0 00-.499-.505l-1.147 1.142a.36.36 0 00.258.6l-.012.013z" fill="#0C4DB9"/><path d="M23.363 11.715H12.291V.505a.354.354 0 00-.36-.355H.517a.355.355 0 00-.36.355V23.5a.36.36 0 00.36.36h22.846a.36.36 0 00.36-.36V12.087a.36.36 0 00-.36-.372zM11.576 23.129H.86V.865h10.717V23.13zm11.415 0h-10.7v-10.7h10.712l-.012 10.7z" fill="#0C4DB9"/><path d="M17.65 20.281a.354.354 0 00.252-.102l.517-.516a.36.36 0 00-.396-.585.35.35 0 00-.115.08l-.51.51a.36.36 0 00.252.601v.012zM13.727 4.47a.337.337 0 00.253-.108l1.844-1.85a.36.36 0 00-.252-.614.36.36 0 00-.259.109l-1.838 1.85a.36.36 0 00.116.587c.043.017.09.026.136.026zM6.35 9.624a.354.354 0 00.252-.102l.87-.877a.348.348 0 000-.505.349.349 0 00-.504 0l-.847.871a.36.36 0 00.259.601l-.03.012z" fill="#0C4DB9"/><path d="M23.363 11.57H12.435V.505A.505.505 0 0011.931 0H.516a.51.51 0 00-.504.505V23.5a.51.51 0 00.504.505h22.847a.51.51 0 00.505-.505V12.087a.504.504 0 00-.505-.517zm.216 11.931a.215.215 0 01-.216.217H.504a.216.216 0 01-.216-.217V.505a.216.216 0 01.216-.21H11.92a.216.216 0 01.216.21v11.354h11.228a.216.216 0 01.216.216v11.426z" fill="#0C4DB9"/><path d="M13.932 9.978a.492.492 0 00.354.145c.133 0 .26-.052.354-.145l6.71-6.71a.503.503 0 00-.547-.821.476.476 0 00-.161.112l-6.71 6.717a.505.505 0 000 .702zm.198-.51l6.698-6.729a.198.198 0 01.15-.066.234.234 0 01.15.06.217.217 0 010 .307l-6.692 6.734a.216.216 0 01-.3 0 .223.223 0 01.012-.306h-.018zM19.86 9.384a.51.51 0 000 .715.516.516 0 00.55.105.499.499 0 00.166-.111l1.838-1.85a.505.505 0 00-.354-.86.486.486 0 00-.355.15l-1.844 1.85zm2.2-1.712a.234.234 0 01.15.06.217.217 0 010 .306l-1.838 1.838a.218.218 0 01-.157.067.216.216 0 01-.15-.067.21.21 0 010-.3l1.844-1.85a.198.198 0 01.15-.054zM20.9 5.317L17.296 8.95a.505.505 0 00.163.817.504.504 0 00.546-.108l3.604-3.604a.505.505 0 00-.162-.817.493.493 0 00-.192-.036.505.505 0 00-.355.114zm.511.51l-3.605 3.605a.216.216 0 01-.3 0 .222.222 0 010-.307l3.605-3.604a.234.234 0 01.232-.047c.025.01.049.027.068.047a.222.222 0 010 .306zM13.727 4.59a.486.486 0 00.355-.15l1.844-1.85a.505.505 0 00-.715-.71l-1.838 1.85a.505.505 0 00.354.86zm-.15-.655l1.838-1.85a.218.218 0 01.157-.066c.057.001.11.025.15.066a.21.21 0 010 .3l-1.844 1.85a.205.205 0 01-.15.066.222.222 0 01-.15-.06.216.216 0 010-.306zM17.65 20.425c.133 0 .26-.051.355-.144l.516-.516a.51.51 0 00-.163-.82.498.498 0 00-.552.11l-.51.511a.505.505 0 00.163.823c.06.025.126.037.191.037zm-.15-.654l.51-.511a.216.216 0 01.151-.066.218.218 0 01.156.066.216.216 0 010 .3l-.517.517a.216.216 0 01-.366-.156.216.216 0 01.066-.15zM6.35 9.768c.132 0 .259-.052.354-.144l.871-.877a.499.499 0 000-.709.475.475 0 00-.354-.15.486.486 0 00-.355.15l-.877.871a.505.505 0 00.36.86zm-.157-.655l.878-.87a.216.216 0 01.15-.067.198.198 0 01.15.066.21.21 0 010 .3L6.5 9.42a.234.234 0 01-.15.06.24.24 0 01-.157-.06.234.234 0 01-.06-.15.24.24 0 01.06-.157zM14.178 6.656a.493.493 0 00.354.145c.133 0 .26-.052.355-.145l3.604-3.604a.5.5 0 000-.709.51.51 0 00-.708 0l-3.605 3.635a.505.505 0 000 .678zm.198-.504l3.605-3.635a.234.234 0 01.15-.06c.056 0 .11.022.15.06a.216.216 0 010 .307l-3.604 3.604a.21.21 0 01-.15.06.21.21 0 01-.157-.06.216.216 0 01.006-.276zM4.728 19.885c.132-.001.259-.053.354-.144l1.141-1.148a.5.5 0 000-.709.475.475 0 00-.354-.15.485.485 0 00-.354.15l-1.148 1.142a.505.505 0 00.36.859zm-.157-.655L5.72 18.09a.216.216 0 01.15-.066.215.215 0 01.156.066.21.21 0 010 .3l-1.141 1.148a.234.234 0 01-.15.06.24.24 0 01-.157-.06.234.234 0 01-.006-.307z" fill="#0C4DB9"/><path d="M12.435 12.28h-.306v11.005h11V12.28H12.435zm10.423 10.717H12.435V12.574h10.423v10.423zM1.01.72H.714v22.571H11.72V.721H1.009zm10.422 11.355v10.928H1.01V1.009h10.423v11.066z" fill="#0C4DB9"/><path d="M23.363 11.57H12.435V.505A.505.505 0 0011.931 0H.516a.51.51 0 00-.504.505V23.5a.51.51 0 00.504.505h22.847a.51.51 0 00.505-.505V12.087a.504.504 0 00-.505-.517zm.36 11.931a.36.36 0 01-.36.36H.504a.36.36 0 01-.36-.36V.505A.354.354 0 01.504.15H11.92a.354.354 0 01.36.355v11.21h11.084a.36.36 0 01.36.36v11.426z" fill="#0C4DB9"/><path d="M13.932 9.978a.492.492 0 00.354.145c.133 0 .26-.052.354-.145l6.71-6.71a.503.503 0 00-.547-.821.476.476 0 00-.161.112l-6.71 6.717a.505.505 0 000 .702zm6.812-7.31a.336.336 0 01.252-.109.354.354 0 01.253.102.367.367 0 010 .51l-6.717 6.705a.36.36 0 01-.583-.117.36.36 0 01.079-.393l6.716-6.699zM19.86 9.384a.51.51 0 000 .715.516.516 0 00.55.105.499.499 0 00.166-.111l1.838-1.85a.505.505 0 00-.354-.86.486.486 0 00-.355.15l-1.844 1.85zm2.2-1.857a.354.354 0 01.252.103.367.367 0 010 .51l-1.838 1.85a.36.36 0 01-.511.007.366.366 0 010-.511l1.844-1.85a.337.337 0 01.253-.109zM20.9 5.317L17.296 8.95a.505.505 0 00.163.817.504.504 0 00.546-.108l3.604-3.604a.505.505 0 00-.162-.817.493.493 0 00-.192-.036.505.505 0 00-.355.114zm.601.6l-3.604 3.635a.36.36 0 01-.511-.505l3.604-3.604a.36.36 0 01.511.504v-.03zM12.435 12.43h-.144v10.717h10.711V12.429H12.435zm10.423 10.573H12.435v-10.43h10.423v10.43z" fill="#0C4DB9"/><path d="M17.65 20.425c.133 0 .26-.051.355-.144l.516-.516a.51.51 0 00-.163-.82.498.498 0 00-.552.11l-.51.511a.505.505 0 00.163.823c.06.025.126.037.191.037zm-.252-.756l.51-.511a.337.337 0 01.253-.108.359.359 0 01.361.36.36.36 0 01-.103.253l-.516.516a.36.36 0 01-.585-.394.355.355 0 01.08-.116zM4.728 19.885c.132-.001.259-.053.354-.144l1.141-1.148a.5.5 0 000-.709.475.475 0 00-.354-.15.485.485 0 00-.354.15l-1.148 1.142a.505.505 0 00.36.859zm-.259-.757l1.148-1.142a.357.357 0 01.504.505L4.98 19.64a.354.354 0 01-.252.102.36.36 0 01-.259-.601v-.012zM6.35 9.768c.132 0 .259-.052.354-.144l.871-.877a.499.499 0 000-.709.475.475 0 00-.354-.15.486.486 0 00-.355.15l-.877.871a.505.505 0 00.36.86zm-.259-.757l.877-.87a.348.348 0 01.505 0 .348.348 0 010 .504l-.871.877a.354.354 0 01-.252.102.378.378 0 01-.259-.102.366.366 0 01-.102-.253.378.378 0 01.132-.258h-.03zM14.178 6.656a.493.493 0 00.354.145c.133 0 .26-.052.355-.145l3.604-3.604a.5.5 0 000-.709.51.51 0 00-.708 0l-3.605 3.635a.505.505 0 000 .678zm3.707-4.24a.36.36 0 01.583.116.36.36 0 01-.079.394L14.785 6.53a.36.36 0 01-.51-.504l3.61-3.61zM13.727 4.59a.486.486 0 00.355-.15l1.844-1.85a.505.505 0 00-.715-.71l-1.838 1.85a.505.505 0 00.354.86zm-.252-.757l1.838-1.85a.36.36 0 11.511.504l-1.844 1.85a.335.335 0 01-.253.109.354.354 0 01-.358-.358.36.36 0 01.106-.255z" fill="#0C4DB9"/><path d="M1.01.865H.86v22.282h10.717V.865H1.01zm10.423 11.21v10.928H1.01V1.009h10.423v11.066z" fill="#0C4DB9"/></svg>