<svg width="24" height="24" fill="none" xmlns="http://www.w3.org/2000/svg"><path d="M5.561 19.77a.344.344 0 00-.259.11l-.51.505a.37.37 0 00.258.628.356.356 0 00.258-.11l.512-.506a.37.37 0 000-.517.345.345 0 00-.259-.11zM17.762 14.848a.366.366 0 00-.26.105l-.35.357a.356.356 0 000 .518.358.358 0 00.517 0l.351-.358a.357.357 0 000-.517.365.365 0 00-.258-.105z" fill="#0C4DB9"/><path d="M23.335.148H.51a.363.363 0 00-.363.37v22.99a.357.357 0 00.363.363h22.824a.357.357 0 00.363-.364V.517a.365.365 0 00-.363-.37zM7.605.88h6.621v11.184l-.197.061-.616.16h-.13c-.768.154-1.55.232-2.333.234h-.524c-.215 0-.43 0-.616.043h-.357c-.085.007-.17.019-.252.037h-.093l-.375.062-.333.068-.351.08H7.84l-.185.049L7.605.881zm-6.7 0h5.968v12.36h-.099a12.193 12.193 0 00-5.598 4.551l-.271.394V.881zm20.022 22.238H.88v-3.387a11.436 11.436 0 016.436-5.87 11.084 11.084 0 013.554-.553h.16c.575-.001 1.15-.044 1.718-.13.259-.043.523-.092.838-.166h.049c.252-.055.511-.13.757-.21h.117l.173-.061h.03A12.108 12.108 0 0020.6 8.037l.271-.4.056 15.482zm0-17.108a11.899 11.899 0 01-5.746 5.678l-.204.086V.881h5.968l-.018 5.13zm2.063 17.108h-1.33V.881h1.33v22.238z" fill="#0C4DB9"/><path d="M17.46 19.732a.37.37 0 00-.26.111l-.541.542a.358.358 0 000 .517.359.359 0 00.517 0l.542-.542a.359.359 0 000-.517.37.37 0 00-.259-.11zM12.065 17.152a.343.343 0 00-.258.11l-.315.308a.376.376 0 00-.104.26c0 .097.037.192.104.264a.363.363 0 00.259.105.344.344 0 00.259-.111l.314-.308a.358.358 0 000-.518.345.345 0 00-.259-.11z" fill="#0C4DB9"/><path d="M23.335 0H.51A.511.511 0 000 .517v22.99a.511.511 0 00.511.511h22.824a.512.512 0 00.511-.51V.517A.512.512 0 0023.335 0zm.215 23.489a.216.216 0 01-.215.215H.51a.216.216 0 01-.215-.215V.517A.222.222 0 01.51.296h22.824a.222.222 0 01.215.221V23.49z" fill="#0C4DB9"/><path d="M7.908 13.038h.104l.345-.08.327-.068.375-.056h.69c.21 0 .425 0 .616-.037h.517a12.365 12.365 0 002.365-.24h.136l.616-.166h.098l.21-.062V.72H7.434v12.46l.37-.1.104-.042zm-.179-12.01h6.325v10.926l-.092.03-.616.16h-.13c-.758.154-1.53.23-2.303.229h-.523c-.222 0-.438 0-.66.043h-.356l-.345.049-.388.062-.333.067-.357.086c-.071.011-.141.027-.21.05L7.73 1.028zM5.561 19.621a.486.486 0 00-.363.154l-.511.505a.524.524 0 00.165.841c.063.027.13.04.198.04a.486.486 0 00.363-.154l.512-.505a.51.51 0 000-.727.5.5 0 00-.364-.154zm.154.671l-.511.505a.203.203 0 01-.154.068.222.222 0 01-.154-.068.196.196 0 01-.062-.154.216.216 0 01.062-.154l.511-.505a.204.204 0 01.154-.067.222.222 0 01.154.067.197.197 0 01.062.154.216.216 0 01-.062.154z" fill="#0C4DB9"/><path d="M14.695 12.508h-.037l-.136.043H14.4c-.246.08-.499.148-.745.21H13.574a11.111 11.111 0 01-2.494.283h-.16c-1.213-.01-2.42.177-3.573.554h-.03a11.603 11.603 0 00-6.498 5.943v3.622h20.324V7.064l-.604.794a11.935 11.935 0 01-5.844 4.65zm6.053 10.47H1.041v-3.203a11.32 11.32 0 016.319-5.789h.03a11.122 11.122 0 013.505-.542h.16c.58.002 1.158-.044 1.73-.135.278-.043.555-.093.826-.154h.08c.258-.062.517-.136.77-.216h.037l.24-.074a.589.589 0 00.061-.03 12.231 12.231 0 005.956-4.767l-.006 14.91z" fill="#0C4DB9"/><path d="M6.805 13.413l.19-.074V.72H.733v17.965l.542-.788a11.967 11.967 0 015.53-4.484zM1.028 1.028H6.7v12.108a12.317 12.317 0 00-5.672 4.6V1.029zM17.761 14.7a.53.53 0 00-.363.148l-.351.357a.517.517 0 00.363.881.523.523 0 00.363-.154l.351-.357a.51.51 0 00-.363-.874zm.16.666l-.357.357a.222.222 0 01-.154.067.202.202 0 01-.154-.067.208.208 0 01-.068-.154.221.221 0 01.068-.154l.351-.357a.213.213 0 01.154-.062.216.216 0 01.16.062.222.222 0 010 .308zM15.083.72h-.296v11.308l.413-.179a12.028 12.028 0 005.82-5.752l.03-.056V.721h-5.967zm5.666 5.241a11.744 11.744 0 01-5.666 5.599V1.028h5.666v4.933zM12.065 17.004a.5.5 0 00-.364.154l-.314.308a.53.53 0 000 .733.518.518 0 00.727 0l.314-.314a.512.512 0 000-.727.5.5 0 00-.363-.154zm.154.671l-.302.29a.216.216 0 01-.356-.07.197.197 0 01-.013-.084.216.216 0 01.061-.154l.314-.308a.208.208 0 01.154-.068.222.222 0 01.154.068.179.179 0 01.062.154.216.216 0 01-.074.172zM21.77.72h-.295v22.535H23.1V.72h-1.33zm1.035 22.24H21.77V1.027h1.035V22.96zM17.46 19.584a.498.498 0 00-.364.154l-.542.542a.51.51 0 000 .727.504.504 0 00.727 0l.542-.542a.51.51 0 000-.727.484.484 0 00-.364-.154zm.153.672l-.542.541a.221.221 0 01-.154.068.21.21 0 01-.154-.067.202.202 0 01-.067-.154.221.221 0 01.067-.154l.542-.542a.222.222 0 01.154-.068.204.204 0 01.154.068.21.21 0 01.068.154.222.222 0 01-.055.154h-.013z" fill="#0C4DB9"/><path d="M17.761 14.7a.53.53 0 00-.363.148l-.351.357a.517.517 0 00.363.881.523.523 0 00.363-.154l.351-.357a.51.51 0 00-.363-.874zm.265.77l-.357.357a.357.357 0 01-.518 0 .356.356 0 010-.517l.351-.357a.363.363 0 01.259-.105c.098 0 .193.038.265.105a.37.37 0 010 .517zM6.75 13.272h.099V.88H.88v17.336l.27-.394a12.164 12.164 0 015.599-4.551zM1.029 1.028H6.7v12.108a12.317 12.317 0 00-5.672 4.6V1.029zM7.876 12.915h.099l.351-.08.333-.068.375-.062h.086c.087 0 .173-.03.26-.037h.35c.222 0 .437-.037.647-.043h.523c.784.004 1.567-.074 2.334-.234h.13c.21-.043.412-.098.616-.16h.197V.88H7.605v12.107l.185-.049.086-.024zM7.73 1.027h6.324v10.926l-.092.03-.616.16h-.13a11.5 11.5 0 01-2.302.229h-.524c-.222 0-.437 0-.659.043h-.357l-.345.049-.388.062-.332.067-.358.087c-.07.01-.14.027-.209.049L7.729 1.028z" fill="#0C4DB9"/><path d="M23.335 0H.51A.511.511 0 000 .517v22.99a.511.511 0 00.511.511h22.824a.512.512 0 00.511-.51V.517A.512.512 0 0023.335 0zm.363 23.489a.358.358 0 01-.363.363H.51a.357.357 0 01-.363-.363V.517A.363.363 0 01.51.147h22.824a.363.363 0 01.363.37V23.49z" fill="#0C4DB9"/><path d="M15.082.88h-.147v10.926l.203-.086a11.867 11.867 0 005.746-5.678V.88h-5.82.018zm5.666 5.094a11.744 11.744 0 01-5.666 5.598V1.028h5.666v4.946zM21.77.88h-.147v22.24h1.33V.88h-1.182zm1.035 22.091h-1.034V1.028h1.034v21.944zM17.46 19.584a.498.498 0 00-.364.154l-.542.542a.51.51 0 000 .727.504.504 0 00.727 0l.542-.542a.51.51 0 000-.727.484.484 0 00-.364-.154zm.258.776l-.542.542a.356.356 0 01-.517 0 .358.358 0 010-.517l.542-.542a.356.356 0 01.517 0 .355.355 0 010 .517zM5.561 19.621a.486.486 0 00-.363.154l-.511.505a.524.524 0 00.165.841c.063.027.13.04.198.04a.486.486 0 00.363-.154l.512-.505a.51.51 0 000-.727.5.5 0 00-.364-.154zm.259.776l-.511.505a.355.355 0 01-.518 0 .37.37 0 010-.517l.512-.505a.358.358 0 01.517 0 .37.37 0 010 .517zM12.065 17.004a.5.5 0 00-.364.154l-.314.308a.53.53 0 000 .733.518.518 0 00.727 0l.314-.314a.512.512 0 000-.727.5.5 0 00-.363-.154zm.259.776l-.315.314a.363.363 0 01-.258.105.345.345 0 01-.259-.111.363.363 0 01-.105-.259c0-.096.038-.189.105-.259l.314-.307a.357.357 0 01.518 0 .356.356 0 010 .517z" fill="#0C4DB9"/><path d="M14.725 12.656h-.037l-.16.05h-.123c-.247.08-.505.153-.758.209H13.567c-.277.067-.548.117-.813.16-.567.085-1.139.129-1.712.129h-.16a11.15 11.15 0 00-3.541.548h-.037a11.424 11.424 0 00-6.411 5.863v3.381h20.021V7.544l-.27.4a12.12 12.12 0 01-5.92 4.712zm6.023 10.315H1.04V19.77a11.32 11.32 0 016.32-5.79h.03a11.122 11.122 0 013.504-.541h.16c.58.002 1.159-.044 1.73-.136.278-.043.555-.092.826-.153h.08c.259-.062.517-.136.77-.216h.037l.24-.074a.589.589 0 00.062-.03 12.231 12.231 0 005.955-4.767l-.006 14.91z" fill="#0C4DB9"/></svg>