<svg id="Слой_1" data-name="Слой 1" xmlns="http://www.w3.org/2000/svg" xmlns:xlink="http://www.w3.org/1999/xlink" viewBox="0 0 26.89 20.54">
  <defs>
    <style>
      .cls-1, .cls-2 {
        fill: none;
      }

      .cls-2 {
        stroke: #0c4db9;
        stroke-linejoin: round;
        stroke-width: 0.75px;
      }

      .cls-3 {
        fill: #0c4db9;
      }

      .cls-4 {
        clip-path: url(#clip-path);
      }

      .cls-5 {
        clip-path: url(#clip-path-2);
      }
    </style>
    <clipPath id="clip-path">
      <path class="cls-1" d="M11.43,6.67C7.54,6.67,4.16,6,2.35,4.92H0V16.06H17.33v-10A27.23,27.23,0,0,1,11.43,6.67Z"/>
    </clipPath>
    <clipPath id="clip-path-2">
      <path class="cls-1" d="M19.34,12.05l-1.82-1.22-.29-4.08L20,7.24V5.18a21.41,21.41,0,0,1-8.57,1.49A22.89,22.89,0,0,1,3.31,5.38v8a4.74,4.74,0,0,0,1.42.47,3.57,3.57,0,0,0,2-.3l.7,1.75a6.26,6.26,0,0,1-2.25.47,4.56,4.56,0,0,1-.75-.06,8.24,8.24,0,0,1-1.09-.29v5.49H20V8.23Z"/>
    </clipPath>
  </defs>
  <g>
    <ellipse class="cls-2" cx="11.45" cy="3.18" rx="7.24" ry="2.41"/>
    <path class="cls-3" d="M5.25,4.42a14,14,0,0,0,6.2,1.17,14,14,0,0,0,6.2-1.17A11.81,11.81,0,0,0,11.45,3,11.79,11.79,0,0,0,5.25,4.42Z"/>
    <g class="cls-4">
      <path class="cls-2" d="M3.39,4.61s-5.9,8.94,1.16,10.2c4.72.85,12-9,12-9"/>
    </g>
    <g>
      <path class="cls-3" d="M26.89,13a1.82,1.82,0,0,1-.71.88.74.74,0,0,1-1.09-.17c-.21-.31-.39-.64-.58-1l-.32-.58a2.4,2.4,0,0,0-1-.92l.86-.86a2.47,2.47,0,0,0,1.1,1c.2.12.41.22.61.33l.6.36a1,1,0,0,1,.48.59Z"/>
      <path class="cls-3" d="M19.27,10.25l-1.39-1L16.29,8.17c-.23-.16-.24-.31-.05-.51l.48-.49.62.35L18.2,8a.28.28,0,0,0,.36,0,.28.28,0,0,0,0-.37L17.9,6.38A.29.29,0,0,1,18,5.94l.7-.7c.19-.18.33-.18.5,0L20.58,7a.28.28,0,0,0,.28.14A.26.26,0,0,0,21,6.66l-.75-.91c-.26-.3-.51-.6-.76-.91a.28.28,0,0,1,0-.45l1-1a.27.27,0,0,1,.45,0c.71,1,1.41,2,2.11,3,0,0,0,0,0,0Z"/>
      <path class="cls-3" d="M21.21,12.41a.89.89,0,0,1-.2-.11L19.71,11a.26.26,0,0,1,0-.42c.33-.34.68-.68,1-1l2.64-2.65c.2-.19.31-.19.51,0l1.19,1.2c.19.18.19.3,0,.49l-3.64,3.64A2.07,2.07,0,0,1,21.21,12.41ZM24,7.77c-.07-.08-.12-.18-.2-.22a.24.24,0,0,0-.31.07l-2,2a.27.27,0,0,0,0,.4.27.27,0,0,0,.41,0l2-2A1,1,0,0,0,24,7.77Zm-3.58,3.07s.07.15.14.18a.39.39,0,0,0,.28,0,.75.75,0,0,0,.24-.23.21.21,0,0,0,0-.28.47.47,0,0,0-.24-.13C20.66,10.34,20.38,10.63,20.37,10.84Z"/>
    </g>
    <g class="cls-5">
      <g>
        <path class="cls-2" d="M4.21,5V17.16c0,1.52,3.24,2.76,7.24,2.76s7.24-1.24,7.24-2.76V5"/>
        <path class="cls-3" d="M7.57,6.13c.8.35,2.06.14,2.67.58-.05.61-.08,1.72-.89,1.82C8.8,8.11,9,6.53,7.9,7h0c-.68,1.2-.33,2.57-.08,3.83.41,1.86-1.78,1.39-1.22-.19a5.85,5.85,0,0,0-.17-4.76C6.83,5.93,7.17,6.07,7.57,6.13Z"/>
      </g>
    </g>
  </g>
</svg>
