<svg width="24" height="24" fill="none" xmlns="http://www.w3.org/2000/svg"><path d="M.58 7.848A.58.58 0 010 7.26V3.598A3.598 3.598 0 013.598 0h17.22a2.382 2.382 0 01.213 4.756l-10.1.914v.93a.587.587 0 01-1.166 0V5.13a.587.587 0 01.53-.579L20.9 3.598a1.224 1.224 0 10-.114-2.448H3.598A2.447 2.447 0 001.15 3.598V7.26a.58.58 0 01-.57.588z" fill="#0C4DB9"/><path d="M8.19 24H2.741A2.741 2.741 0 010 21.284V6.6a.58.58 0 01.58-.58h9.788a.58.58 0 01.58.58.742.742 0 00.742.742h8.337a2.186 2.186 0 012.186 2.186v2.252a.58.58 0 01-.514.58l-10.115 1.06a.742.742 0 00-.66.734v7.13A2.75 2.75 0 018.19 24zM1.158 7.138v14.146a1.575 1.575 0 001.583 1.574h5.45a1.574 1.574 0 001.574-1.574v-7.106a1.91 1.91 0 011.697-1.892l9.577-1.044v-1.73a1.036 1.036 0 00-1.028-1.028h-8.337a1.909 1.909 0 01-1.82-1.321l-8.696-.025z" fill="#0C4DB9"/><path d="M20.68 15.72h-3.475a1.517 1.517 0 01-1.517-1.518v-1.696a.586.586 0 111.166 0v1.697a.35.35 0 00.351.35h3.475a.359.359 0 00.36-.35v-3.035a.58.58 0 011.158 0v3.035a1.517 1.517 0 01-1.518 1.517zM18.925 22.393a2.195 2.195 0 01-2.186-2.195c0-1.313 1.566-3.206 1.746-3.41a.588.588 0 01.44-.212.606.606 0 01.45.212c.293.351 1.745 2.146 1.745 3.41a2.194 2.194 0 01-2.195 2.195zm0-4.283a4.944 4.944 0 00-1.027 2.088 1.028 1.028 0 102.055 0 5.034 5.034 0 00-1.027-2.088z" fill="#0C4DB9"/></svg>