<svg width="24" height="21" fill="none" xmlns="http://www.w3.org/2000/svg"><path d="M13.364 8.797H2.782a.511.511 0 01-.26-.073l-.285-.186a4.94 4.94 0 010-8.272A1.62 1.62 0 013.12 0h10.244a1.733 1.733 0 011.733 1.733v5.311a1.731 1.731 0 01-1.733 1.753zM2.921 7.854h10.443a.783.783 0 00.784-.783V1.759a.783.783 0 00-.784-.783H3.12a.664.664 0 00-.358.106 3.983 3.983 0 000 6.686l.16.086z" fill="#0C4DB9"/><path d="M2.948 16.332a.471.471 0 01-.471-.478V8.325a.471.471 0 11.942 0v7.529a.471.471 0 01-.471.478zM7.622 16.093a.478.478 0 01-.392-.206 6.022 6.022 0 01-1.042-3.399V8.325a.471.471 0 11.942 0v4.163a5.079 5.079 0 00.883 2.868.471.471 0 01-.126.664.479.479 0 01-.265.073z" fill="#0C4DB9"/><path d="M9.58 20.541H3.12a1.394 1.394 0 01-1.393-1.387v-2.377a1.394 1.394 0 011.394-1.394h6.486a1.394 1.394 0 011.388 1.394v2.377A1.395 1.395 0 019.58 20.54zm-6.46-4.21a.445.445 0 00-.444.446v2.377a.445.445 0 00.445.444h6.486a.445.445 0 00.445-.444v-2.377a.445.445 0 00-.445-.445H3.121zM15.622 7.721h-.996a.471.471 0 010-.943h.996a5.238 5.238 0 003.738-1.573V3.598a5.237 5.237 0 00-3.738-1.573h-.996a.478.478 0 110-.95h.996a6.201 6.201 0 014.56 1.992c.081.087.127.2.127.319v1.992a.485.485 0 01-.126.318 6.195 6.195 0 01-4.561 2.025z" fill="#0C4DB9"/><path d="M23.529 4.873H19.83a.471.471 0 110-.943h3.698a.471.471 0 110 .943zM6.659 12.236a.471.471 0 01-.471-.472V8.325a.471.471 0 01.47-.47h1.488a.471.471 0 01.478.47v1.946a1.992 1.992 0 01-1.965 1.965zm.471-3.433v2.364a1.003 1.003 0 00.545-.896V8.803H7.13zM14.406 3.1H4.276a.478.478 0 010-.949h10.13a.479.479 0 110 .95zM14.406 6.652H4.276a.478.478 0 010-.95h10.13a.478.478 0 110 .95zM16.398 7.595a.471.471 0 01-.47-.471V5.238a.48.48 0 01.93-.2c.02.065.026.133.018.2v1.886a.472.472 0 01-.478.471zM18.284 3.917a.472.472 0 01-.478-.471V2.297a.478.478 0 01.949 0v1.149a.471.471 0 01-.471.47z" fill="#0C4DB9"/></svg>