<svg width="218" height="185" fill="none" xmlns="http://www.w3.org/2000/svg"><path d="M-31.97 75.415S-62.785 85.948-72.971 134.2c-10.186 48.253 11.09 111.881 47.537 140.715 36.424 28.746 81.541 29.745 118.374 7.546 17.98-10.793 27.024-28.865 33.515-49.382 5.636-17.918 12.725-35.561 24.867-49.152 12.085-13.481 25.094-25.123 27.533-45.314 6.09-49.052-20.826-97.037-67.963-102.996C60.157 29.105-13.669 59.7-31.97 75.415z" fill="#E9EBEE"/><path d="M72.63 147.36c19.377 0 35.085-19.964 35.085-44.592 0-24.627-15.708-44.592-35.084-44.592-19.377 0-35.084 19.965-35.084 44.592 0 24.628 15.707 44.592 35.084 44.592z" fill="#33333D" stroke="#33333D" stroke-miterlimit="10" stroke-linecap="round" stroke-linejoin="round"/><path d="M9.164 114.081s-29.303 88.131-29.303 90.367c0 2.236 8.673 11.97 14.192 11.444 5.387-.526 15.242-6.577 15.242-6.577l9.855-86.158-9.986-9.076z" stroke="#33333D" stroke-miterlimit="10" stroke-linecap="round" stroke-linejoin="round"/><path d="M67.242 102.374L9.163 114.081l9.33 114.57H131.89l15.111-119.306-69.248-7.497-10.512.526z" fill="#33333D"/><path opacity=".3" d="M18.493 228.651h113.399l2.759-22.362-.131-1.184-27.332 6.051 11.826-50.379-65.568 28.938-15.9 15.917h9.855l-29.17 19.336.262 3.683z" fill="#16110D"/><path d="M67.242 102.374L9.163 114.081l9.33 114.57H131.89l15.111-119.306-69.248-7.497-10.512.526z" stroke="#33333D" stroke-miterlimit="10" stroke-linecap="round" stroke-linejoin="round"/><path d="M61.068 95.928s-9.46 5.13-11.826 9.865c-2.365 4.604-12.351 39.068-12.351 39.068l16.293 3.551-15.636 7.629 23.783 68.138 37.843-2.368 24.572-71.557-15.111-6.446 13.403-5.787s-12.746-24.467-19.71-34.858c-7.096-10.655-41.26-7.235-41.26-7.235z" fill="#33333D" stroke="#33333D" stroke-miterlimit="10" stroke-linecap="round" stroke-linejoin="round"/><path d="M59.621 229.835l-.525-119.832 31.404-2.894 9.33 121.542-40.209 1.184z" fill="#fff" stroke="#33333D" stroke-miterlimit="10" stroke-linecap="round" stroke-linejoin="round"/><path d="M54.497 78.565s4.074 22.756 4.6 28.544c.525 5.788 15.636 47.091 20.103 40.382 4.862-7.366 10.775-30.517 11.826-35.778 1.183-5.262 1.183-27.887 1.183-27.887s-14.98 10.392-37.712-5.261z" fill="#fff"/><path d="M92.078 98.822c.262-7.498.262-15.127.262-15.127s-15.11 10.523-37.843-5.261c0 0 1.708 9.339 3.022 17.626 3.154 3.946 8.935 10.26 16.294 11.444 7.49 1.183 13.534-2.763 18.264-8.682z" fill="#33333D"/><path opacity=".5" d="M92.078 98.822c.262-7.498.262-15.127.262-15.127s-15.11 10.523-37.843-5.261c0 0 1.708 9.339 3.022 17.626 3.154 3.946 8.935 10.26 16.294 11.444 7.49 1.183 13.534-2.763 18.264-8.682z" fill="#fff"/><path d="M54.497 78.565s4.074 22.756 4.6 28.544c.525 5.788 15.636 47.091 20.103 40.382 4.862-7.366 10.775-30.517 11.826-35.778 1.183-5.262 1.183-27.887 1.183-27.887s-14.98 10.392-37.712-5.261z" stroke="#33333D" stroke-miterlimit="10" stroke-linecap="round" stroke-linejoin="round"/><path d="M104.56 55.809s6.438-8.155 6.438 1.184c0 9.339-6.438 10.523-6.438 10.523V55.809z" fill="#fff" stroke="#33333D" stroke-miterlimit="10" stroke-linecap="round" stroke-linejoin="round"/><path d="M41.09 36.604S48.71 70.936 48.71 75.54c0 9.865 18.659 20.914 26.806 23.282 8.147 2.368 27.857-15.653 29.039-20.389 1.183-4.603 1.708-45.38-.525-53.536-2.366-8.155-15.637-13.417-24.44-13.417-8.805.132-34.428 4.735-38.501 25.124z" fill="#fff"/><path d="M79.459 11.612c-8.673 0-34.296 4.603-38.37 24.992 0 0 4.468 20.52 6.57 31.964 0-5.262.92-15.39 6.57-19.73 7.754-6.052 20.762-6.972 28.252-10.392 7.358-3.42 9.067-12.628 9.067-12.628s.394 16.048 3.942 19.994c3.416 3.946 6.964 6.577 7.358 13.417.394 6.971 1.708 13.943-1.708 19.599-3.417 5.656-17.74 16.442-24.31 18.679-1.05.394-1.97.657-2.89.92.526.132 1.051.395 1.445.526 8.147 2.368 27.857-15.653 29.04-20.388 1.182-4.604 1.708-45.381-.526-53.536-2.365-8.156-15.636-13.417-24.44-13.417zM67.37 95.402C64.217 92.245 55.544 83.3 51.602 78.828c-1.576-1.841-2.496-3.157-3.022-4.21v.922c.132 7.366 10.25 15.258 18.79 19.862z" fill="#33333D"/><g opacity=".5" fill="#fff"><path opacity=".5" d="M79.459 11.612c-8.673 0-34.296 4.603-38.37 24.992 0 0 4.468 20.52 6.57 31.964 0-5.262.92-15.39 6.57-19.73 7.754-6.052 20.762-6.972 28.252-10.392 7.358-3.42 9.067-12.628 9.067-12.628s.394 16.048 3.942 19.994c3.416 3.946 6.964 6.577 7.358 13.417.394 6.971 1.708 13.943-1.708 19.599-3.417 5.656-17.74 16.442-24.31 18.679-1.05.394-1.97.657-2.89.92.526.132 1.051.395 1.445.526 8.147 2.368 27.857-15.653 29.04-20.388 1.182-4.604 1.708-45.381-.526-53.536-2.365-8.156-15.636-13.417-24.44-13.417zM67.37 95.402C64.217 92.245 55.544 83.3 51.602 78.828c-1.576-1.841-2.496-3.157-3.022-4.21v.922c.132 7.366 10.25 15.258 18.79 19.862z"/></g><path d="M41.09 36.604S48.71 70.936 48.71 75.54c0 9.865 18.659 20.914 26.806 23.282 8.147 2.368 27.857-15.653 29.039-20.389 1.183-4.603 1.708-45.38-.525-53.536-2.366-8.155-15.637-13.417-24.44-13.417-8.805.132-34.428 4.735-38.501 25.124z" stroke="#33333D" stroke-miterlimit="10" stroke-linecap="round" stroke-linejoin="round"/><path d="M71.184 57.65c0 1.579-.788 2.894-1.577 2.894-.788 0-1.577-1.315-1.577-2.894 0-1.578.789-2.894 1.577-2.894.788 0 1.577 1.316 1.577 2.894zM90.367 57.65c0 1.579-.788 2.894-1.576 2.894-.92 0-1.577-1.315-1.577-2.894 0-1.578.788-2.894 1.577-2.894.92 0 1.576 1.316 1.576 2.894z" fill="#33333D"/><path d="M83.273 54.23s-1.709 5.657 0 7.367c1.708 1.71 5.65.92 5.256 3.025-.394 2.236-6.965 4.867-6.965 4.867M80.644 77.38s-7.884 3.026-11.3-2.236M63.563 52.388s2.233-5.656 8.672-3.025M84.06 49.89s3.154-5.262 7.622.526" stroke="#33333D" stroke-miterlimit="10" stroke-linecap="round" stroke-linejoin="round"/><path d="M106.795 16.215c-5.781-6.577-11.826-6.182-15.505-4.735-4.862-8.287-21.155-14.864-42.048-6.84-24.44 9.34-21.55 34.332-20.367 38.935 1.183 4.604 9.33 16.837 14.586 17.495 0 0 4.599-4.078 4.599-8.155 0-4.078 11.037-12.233 22.075-15.653 6.964-2.236 14.585-6.183 19.053-11.444 0 2.63.394 6.577 2.496 9.602 3.548 5.262 8.673 8.155 8.673 9.865 0 1.71 2.891 8.156 5.256 8.156s2.365-9.34 2.891-13.417c.657-3.946 6.438-14.47-1.709-23.809z" fill="#33333D" stroke="#33333D" stroke-miterlimit="10" stroke-linecap="round" stroke-linejoin="round"/><path d="M42.674 40.945c-2.234 1.315-3.68 2.894-4.073 4.867M87.084 19.898s-5.913 9.34-16.688 12.76c-6.57 2.104-16.557 3.683-23.521 6.314M82.225 17.4S71.45 24.764 59.23 25.685c-12.22.92-20.63-1.447-22.601 1.447M106.796 29.106c.263 1.447.394 3.157.394 4.999M95.494 15.952s7.753 2.236 10.644 10.523" stroke="#fff" stroke-miterlimit="10" stroke-linecap="round" stroke-linejoin="round"/><path d="M45.168 70.41s9.067 12.233 14.06 14.864c4.993 2.63 14.322-1.053 14.322-1.053" stroke="#33333D" stroke-miterlimit="10" stroke-linecap="round" stroke-linejoin="round"/><path d="M76.835 84.352c0 1.184-1.446 2.236-3.285 2.236-1.84 0-3.285-.92-3.285-2.236 0-1.184 1.445-2.236 3.285-2.236s3.285 1.052 3.285 2.236z" fill="#33333D"/><path d="M40.042 53.704s-10.775-28.018 0-44.592c0 0-16.688 17.232-1.97 48.538l1.97-3.946z" fill="#fff"/><path d="M47.533 62.78c.92 6.577-.788 12.233-3.942 12.76-3.154.526-6.57-4.473-7.621-11.05-.92-6.577.788-12.233 3.942-12.76 3.285-.394 6.701 4.473 7.621 11.05z" fill="#fff" stroke="#33333D" stroke-miterlimit="10" stroke-linecap="round" stroke-linejoin="round"/><path d="M41.681 75.285c2.87-.432 4.402-6.081 3.42-12.619-.98-6.537-4.103-11.487-6.974-11.055-2.87.431-4.402 6.081-3.42 12.619.98 6.537 4.103 11.487 6.974 11.055z" fill="#fff" stroke="#33333D" stroke-miterlimit="10" stroke-linecap="round" stroke-linejoin="round"/><path d="M147.004 109.345l15.111 119.964-30.222-.658 15.111-119.306z" fill="#33333D"/><path opacity=".3" d="M155.15 174.72l-15.636 9.471.263-17.626-7.884 62.086 30.222.658-2.497-19.6-13.14.395 11.695-12.233-.132-.789-16.162 5.524 14.585-17.626-1.314-10.26z" fill="#16110D"/><path d="M147.004 109.345l15.111 119.964-30.222-.658 15.111-119.306z" stroke="#33333D" stroke-miterlimit="10" stroke-linecap="round" stroke-linejoin="round"/><path d="M38.727 73.961s4.468-1.579 5.388.132c.92 1.71 2.102 9.207 2.102 10.26 0 1.052-.394 1.973-2.365 1.315-1.971-.79-5.256-7.366-5.256-7.366l.131-4.341z" fill="#fff" stroke="#33333D" stroke-miterlimit="10" stroke-linecap="round" stroke-linejoin="round"/><path d="M19.15 97.77s4.205-26.703 4.205-29.465c.131-2.894 3.942-5.262 5.781-5.92 1.84-.657 12.352-.394 13.403-.394 1.183 0 5.65-.263 5.519 1.184 0 1.447-.394 2.105-4.205 2.762-3.81.658-12.746 1.053-12.746 1.053l-2.365 3.551 11.17 2.105s2.627 1.184 2.102 2.894c-.395 1.841-1.84 9.734-1.84 10.786 0 1.052-1.183 1.71-3.81 3.552-2.629 1.71-5.257 1.972-5.257 1.972s.263 5.394-1.314 6.051c-1.577.658-3.81 1.71-3.81 1.71l-.526 31.044-17.082-1.974L19.15 97.77z" fill="#fff" stroke="#33333D" stroke-miterlimit="10" stroke-linecap="round" stroke-linejoin="round"/><path d="M41.355 77.118L27.822 74.75M28.61 80.538L39.777 83.3M31.239 91.982s-1.84-2.894-.789-3.157c1.052-.263 3.417-.92 3.417-.92" stroke="#33333D" stroke-miterlimit="10" stroke-linecap="round" stroke-linejoin="round"/><path d="M10.082 112.897l18.528 6.971s-12.877 81.028-16.031 87.474c-3.154 6.314-10.38 13.811-19.71 14.601-9.33.92-16.162-9.208-16.425-19.863-.263-10.523 33.638-89.183 33.638-89.183z" fill="#33333D"/><path opacity=".3" d="M-5.293 180.771c-4.861 2.499-9.723 4.341-14.06 5.656a152.42 152.42 0 00-3.679 11.97c2.497-.394 5.52-.657 8.804-1.183 11.432-1.447 18.396-3.947 18.396-3.947s-14.454 8.945-27.331 10.392h-.263c.92 9.997 7.359 19.073 16.294 18.284 9.33-.921 16.688-8.287 19.71-14.601 1.577-3.157 5.387-24.203 8.935-44.986-.263.263-12.614 11.049-26.806 18.415z" fill="#16110D"/><path d="M10.082 112.897l18.528 6.971s-12.877 81.028-16.031 87.474c-3.154 6.314-10.38 13.811-19.71 14.601-9.33.92-16.162-9.208-16.425-19.863-.263-10.523 33.638-89.183 33.638-89.183z" stroke="#33333D" stroke-miterlimit="10" stroke-linecap="round" stroke-linejoin="round"/></svg>