<svg width="24" height="19" fill="none" xmlns="http://www.w3.org/2000/svg"><path d="M4.525 16.918a1.377 1.377 0 01-1.377 1.377v0a1.377 1.377 0 01-1.377-1.377V1.574A1.377 1.377 0 013.148.197v0a1.377 1.377 0 011.377 1.377v15.344zM8.853 16.918a1.377 1.377 0 11-2.754 0V1.574A1.377 1.377 0 017.476.197v0a1.377 1.377 0 011.377 1.377v15.344zM13.18 16.918a1.377 1.377 0 01-1.377 1.377v0a1.377 1.377 0 01-1.377-1.377V1.574A1.377 1.377 0 0111.803.197v0a1.377 1.377 0 011.377 1.377v15.344zM17.508 16.918a1.377 1.377 0 01-2.754 0V1.574A1.377 1.377 0 0116.13.197v0a1.377 1.377 0 011.377 1.377v15.344zM22.23 16.918a1.377 1.377 0 01-1.377 1.377v0a1.377 1.377 0 01-1.377-1.377V1.574A1.377 1.377 0 0120.853.197v0a1.377 1.377 0 011.377 1.377v15.344z" stroke="#0C4DB9" stroke-miterlimit="10"/><path d="M.393 3.738h22.033a1.503 1.503 0 011.377 1.574v8.526s.032 2.097-1.672 2.097H0" stroke="#0C4DB9" stroke-miterlimit="10"/></svg>