<svg width="87" height="17" viewBox="0 0 87 17" fill="none" xmlns="http://www.w3.org/2000/svg">
<g clip-path="url(#clip0_43_2235)">
<path d="M9.7095 12.5929H6.7681V12.1252C6.11128 12.5241 5.32595 12.7718 4.355 12.7718C1.98474 12.7718 0 10.8732 0 8.35562C0 5.82423 1.98474 3.93945 4.36928 3.93945C5.32595 3.93945 6.12556 4.18709 6.78237 4.58606V4.13206H9.7095V12.5929ZM6.7681 9.66258V7.04865C6.22551 6.44332 5.59724 6.25072 4.94042 6.25072C3.74101 6.25072 2.87002 7.18623 2.87002 8.36938C2.87002 9.55252 3.74101 10.4605 4.94042 10.4605C5.59724 10.4468 6.22551 10.2679 6.7681 9.66258Z" fill="#0D0943" fill-opacity="0.4"/>
<path d="M20.804 7.76398V12.6066H17.8484V8.21798C17.8484 7.00732 17.2201 6.4295 16.2491 6.4295C15.7066 6.4295 15.1211 6.73217 14.6214 7.28247V12.5791H11.6942V4.132H14.6214V4.70981C15.321 4.17327 16.1064 3.87061 17.0487 3.87061C19.2905 3.87061 20.804 5.35642 20.804 7.76398Z" fill="#0D0943" fill-opacity="0.4"/>
<path d="M27.0724 16.4998H23.9882L25.6588 12.689L21.4894 4.13184H24.6022L27.1152 9.34594L29.3998 4.13184H32.484L27.0724 16.4998Z" fill="#0D0943" fill-opacity="0.4"/>
<path d="M57.1004 12.5927H54.1733V12.0287C53.4737 12.5514 52.7026 12.8541 51.7602 12.8541C49.5327 12.8541 48.0192 11.3683 48.0192 8.96073V4.13184H50.9463V8.52049C50.9463 9.73115 51.6031 10.309 52.5598 10.309C53.1024 10.309 53.6593 10.0063 54.1733 9.46975V4.13184H57.1004V12.5927Z" fill="#0D0943" fill-opacity="0.4"/>
<path d="M67.7523 9.13971L67.7666 9.19474H61.4983C61.7267 9.96516 62.355 10.5567 63.4687 10.5567C64.0827 10.5567 64.5539 10.3366 64.8109 9.9514H67.7095C67.2954 11.6986 65.6105 12.7992 63.4402 12.7992C60.5559 12.7992 58.6425 10.9557 58.6425 8.36929C58.6425 5.79663 60.4988 3.95312 63.3117 3.95312C65.8676 3.95312 67.8095 5.6453 67.8095 8.19044C67.8095 8.49311 67.8095 8.82329 67.7523 9.13971ZM61.4697 7.54384H65.0537C64.8966 6.62208 64.2541 6.12681 63.3117 6.12681C62.3264 6.12681 61.6839 6.67711 61.4697 7.54384Z" fill="#0D0943" fill-opacity="0.4"/>
<path d="M75.2201 6.67735C73.7922 6.73238 72.8927 7.10383 72.193 7.76419V12.6068H69.2516V4.1322H72.1787V5.0402C72.9641 4.3936 73.9065 3.99463 75.2058 3.99463V6.67735H75.2201Z" fill="#0D0943" fill-opacity="0.4"/>
<path d="M81.5741 16.4999H78.5042L80.1748 12.6891L76.0054 4.11816H79.1182L81.6312 9.33227L83.9158 4.11816H87L81.5741 16.4999Z" fill="#0D0943" fill-opacity="0.4"/>
<path d="M40.2088 3.70533V4.24188C40.5372 4.24188 40.8656 4.31067 41.1654 4.44824C41.4653 4.58582 41.7223 4.79218 41.9365 5.03981H42.6076C42.3649 4.62709 42.0079 4.29691 41.5938 4.06303C41.1654 3.82915 40.6943 3.70533 40.2088 3.70533Z" fill="#0D0943" fill-opacity="0.4"/>
<path d="M46.4486 6.77326C46.4486 5.45254 46.0059 4.15933 45.2063 3.08625C44.4067 2.01316 43.2644 1.21522 41.9651 0.802497C40.6657 0.389771 39.2521 0.389771 37.9527 0.788739C36.6534 1.18771 35.5111 1.98564 34.6972 3.04497C33.8833 4.11806 33.4407 5.39751 33.4264 6.71823C33.4121 8.03895 33.8405 9.33216 34.6401 10.419C35.4254 11.5058 36.5534 12.3175 37.8528 12.744C39.1522 13.1705 40.5515 13.1843 41.8651 12.7853L44.0783 15.3304L46.42 13.4319L44.5209 11.2445C45.1349 10.6666 45.6204 9.96501 45.9488 9.19459C46.2772 8.43792 46.4486 7.61247 46.4486 6.77326ZM39.9232 10.3915C39.1807 10.3915 38.4668 10.1851 37.8385 9.78616C37.2245 9.38719 36.7391 8.82313 36.4535 8.16277C36.1679 7.50241 36.0965 6.77326 36.2393 6.07163C36.3821 5.37 36.7391 4.72339 37.2674 4.21436C37.7957 3.70533 38.4525 3.3614 39.1807 3.22382C39.9089 3.08625 40.6657 3.15503 41.3368 3.43018C42.0222 3.70533 42.6076 4.17309 43.0217 4.76466C43.4358 5.35624 43.6499 6.05787 43.6499 6.77326C43.6499 7.73629 43.2501 8.64429 42.5505 9.33216C41.8508 10.02 40.9227 10.3915 39.9232 10.3915Z" fill="#0D0943" fill-opacity="0.4"/>
</g>
<defs>
<clipPath id="clip0_43_2235">
<rect width="87" height="16" fill="white" transform="translate(0 0.5)"/>
</clipPath>
</defs>
</svg>
