<svg width="24" height="24" fill="none" xmlns="http://www.w3.org/2000/svg"><path d="M22.133 24H1.866a1.892 1.892 0 01-1.891-1.892V1.867A1.892 1.892 0 011.866-.025h20.267a1.892 1.892 0 011.892 1.892v20.267A1.891 1.891 0 0122.133 24zM1.866 1.015a.851.851 0 00-.845.852v20.267a.845.845 0 00.845.845h20.267a.851.851 0 00.852-.845V1.867a.858.858 0 00-.852-.852H1.866z" fill="#0C4DB9"/><path d="M7.9 14.22a2.227 2.227 0 110-4.453 2.227 2.227 0 010 4.453zm0-3.424a1.204 1.204 0 100 2.408 1.204 1.204 0 000-2.408zM16.099 14.22a2.226 2.226 0 110-4.453 2.226 2.226 0 010 4.453zm0-3.424a1.204 1.204 0 100 2.407 1.204 1.204 0 000-2.407zM12 7.636a1.891 1.891 0 01-1.892-1.891V.51A.51.51 0 0110.62 0h2.8a.51.51 0 01.51.51v5.216A1.891 1.891 0 0112 7.636zm-.889-6.62v4.71a.895.895 0 001.785 0v-4.71H11.11zM13.4 24h-2.8a.51.51 0 01-.511-.51v-5.222a1.91 1.91 0 013.821 0v5.221a.51.51 0 01-.51.511zm-2.29-1.021h1.785v-4.71a.896.896 0 00-1.785 0v4.71z" fill="#0C4DB9"/><path d="M13.4 21.478a.498.498 0 01-.328-.127.504.504 0 01-.177-.384v-2.7a.896.896 0 00-1.784 0v2.7a.504.504 0 01-.369.489.518.518 0 01-.218.015 9.585 9.585 0 010-18.917.51.51 0 01.41.113.517.517 0 01.177.391v2.693a.895.895 0 001.784 0V3.033a.516.516 0 01.177-.39.505.505 0 01.41-.114 9.585 9.585 0 010 18.917l-.082.032zM12 16.364a1.892 1.892 0 011.892 1.891v2.081a8.57 8.57 0 000-16.704v2.081a1.91 1.91 0 01-3.822 0v-2.08a8.57 8.57 0 000 16.703v-2.08A1.892 1.892 0 0112 16.363z" fill="#0C4DB9"/></svg>