<svg width="36" height="36" viewBox="0 0 36 36" fill="none" xmlns="http://www.w3.org/2000/svg">
<path d="M18 36C27.9411 36 36 27.9411 36 18C36 8.05888 27.9411 0 18 0C8.05888 0 0 8.05888 0 18C0 27.9411 8.05888 36 18 36Z" fill="#FFDD67"/>
<path d="M28.6201 19.44C28.3801 19.14 27.9601 19.2 27.4801 19.2H8.52008C8.04008 19.2 7.62008 19.14 7.38008 19.44C5.04008 22.44 7.80008 31.2 18.0001 31.2C28.2001 31.2 30.9601 22.44 28.6201 19.44Z" fill="#664E27"/>
<path d="M19.08 23.82C18.72 23.82 18.18 24.12 18.42 25.02C18.54 25.44 19.14 25.98 19.14 26.7C19.14 28.14 16.86 28.14 16.86 26.7C16.86 25.98 17.46 25.5 17.58 25.02C17.76 24.18 17.22 23.82 16.92 23.82C15.96 23.82 14.46 24.84 14.46 26.58C14.46 28.5 16.08 30.06 18.06 30.06C20.04 30.06 21.66 28.5 21.66 26.58C21.6 24.9 20.04 23.88 19.08 23.82Z" fill="#4C3526"/>
<path d="M13.3799 29.22C14.6999 29.82 16.2599 30.12 17.9999 30.12C19.7399 30.12 21.2999 29.76 22.6199 29.22C21.3599 28.56 19.7999 28.2 17.9999 28.2C16.1999 28.2 14.6399 28.56 13.3799 29.22Z" fill="#FF717F"/>
<path d="M26.9996 20.4H9.05957C7.79957 20.4 7.79957 22.8 8.99957 22.8H26.9996C28.1996 22.8 28.1996 20.4 26.9996 20.4Z" fill="white"/>
<path d="M11.1001 15.6C12.757 15.6 14.1001 14.2569 14.1001 12.6C14.1001 10.9432 12.757 9.60001 11.1001 9.60001C9.44324 9.60001 8.1001 10.9432 8.1001 12.6C8.1001 14.2569 9.44324 15.6 11.1001 15.6Z" fill="#664E27"/>
<path d="M24.8999 15.6C26.5568 15.6 27.8999 14.2569 27.8999 12.6C27.8999 10.9432 26.5568 9.60001 24.8999 9.60001C23.243 9.60001 21.8999 10.9432 21.8999 12.6C21.8999 14.2569 23.243 15.6 24.8999 15.6Z" fill="#664E27"/>
</svg>
