<svg width="12" height="12" viewBox="0 0 12 12" fill="none" xmlns="http://www.w3.org/2000/svg"><path d="M11.069 8.425c-.808 0-1.595-.13-2.325-.37a.667.667 0 00-.664.156L6.648 9.643a9.863 9.863 0 01-4.291-4.29L3.789 3.92a.653.653 0 00.163-.664A7.397 7.397 0 013.582.93.653.653 0 002.93.28H.651A.653.653 0 000 .931C0 7.045 4.955 12 11.069 12a.653.653 0 00.651-.651V9.077a.653.653 0 00-.651-.652zM1.322 1.582h.976c.046.58.144 1.146.3 1.687l-.781.78a9.653 9.653 0 01-.495-2.467zm9.096 9.096a10.042 10.042 0 01-2.474-.488l.774-.775c.554.156 1.12.254 1.693.293v.97h.007zm-.651-6.491H8.08L11.35.918 10.43 0 7.162 3.269V1.582H5.86V5.49h3.907V4.187z" fill="#fff"></path></svg>