<svg xmlns="http://www.w3.org/2000/svg" width="35" height="35" viewBox="0 0 35 35" fill="none">
												<path fill-rule="evenodd" clip-rule="evenodd" d="M12.1727 0.625977H22.8499C32.5943 0.625977 34.9015 2.89127 34.9015 12.4585V22.9415C34.9015 32.5087 32.5943 34.774 22.8499 34.774H12.1727C2.42833 34.774 0.121094 32.5087 0.121094 22.9415V12.4585C0.121094 2.89127 2.42833 0.625977 12.1727 0.625977Z" fill="#FF0000"></path>
												<path d="M27.4489 12.2595C27.1958 11.3738 26.5632 10.7412 25.6776 10.4882C24.1594 10.1086 17.7069 10.1086 17.7069 10.1086C17.7069 10.1086 11.381 10.1086 9.73622 10.4882C8.85059 10.7412 8.21799 11.3738 7.96495 12.2595C7.71191 13.9042 7.71191 17.1937 7.71191 17.1937C7.71191 17.1937 7.71192 20.4832 8.09147 22.1279C8.34451 23.0136 8.9771 23.6462 9.86273 23.8992C11.381 24.2788 17.8334 24.2788 17.8334 24.2788C17.8334 24.2788 24.1593 24.2788 25.8041 23.8992C26.6897 23.6462 27.3224 23.0136 27.5754 22.1279C27.9549 20.4832 27.9549 17.1937 27.9549 17.1937C27.9549 17.1937 27.9549 13.9042 27.4489 12.2595ZM15.8091 20.2302V14.1572L21.1229 17.1937L15.8091 20.2302Z" fill="white"></path>
											</svg>