<svg xmlns="http://www.w3.org/2000/svg"><symbol id="icon-history"><path d="M7.0102 1.48996C4.90654 1.48996 3.07742 2.67205 2.1511 4.41264C2.12714 4.45765 2.10379 4.50304 2.08106 4.54878L0.749098 3.88495C0.778002 3.82679 0.807688 3.76909 0.838143 3.71186C2.01266 1.5049 4.33536 0 7.0102 0C10.8706 0 14 3.13401 14 7C14 10.866 10.8706 14 7.0102 14C4.93773 14 3.07517 13.0958 1.79623 11.6622L2.90571 10.6695C3.91434 11.8001 5.37899 12.51 7.0102 12.51C10.0489 12.51 12.5122 10.0431 12.5122 7C12.5122 3.95689 10.0489 1.48996 7.0102 1.48996Z"></path> <path d="M6.32404 3.38911H7.24792V7.09839H10.0196V8.02571H6.32404V3.38911Z"></path> <path d="M0.709314 6.00188L0 3.29592L3.16241 4.66337L0.709314 6.00188Z"></path></symbol> <symbol id="icon-brand"><path d="M6.38638 6.38764C5.70296 7.07106 4.59492 7.07106 3.9115 6.38764C3.22809 5.70422 3.22809 4.59619 3.9115 3.91277C4.59492 3.22935 5.70296 3.22935 6.38638 3.91277C7.0698 4.59619 7.0698 5.70422 6.38638 6.38764ZM4.73646 5.56268C4.96427 5.79049 5.33361 5.79049 5.56142 5.56268C5.78923 5.33488 5.78923 4.96553 5.56142 4.73773C5.33361 4.50992 4.96427 4.50992 4.73646 4.73773C4.50866 4.96553 4.50866 5.33488 4.73646 5.56268Z"></path> <path d="M0.0211669 6.49313C-0.0576313 6.95016 0.0842053 7.43871 0.436171 7.79068L6.21997 13.564C6.79782 14.1418 7.73815 14.1471 8.316 13.5692L13.5692 8.316C14.1471 7.73815 14.1418 6.79782 13.564 6.21996L7.79068 0.436171C7.43871 0.0842054 6.95016 -0.0576315 6.49313 0.021167L0.961493 0.961493L0.0211669 6.49313ZM6.74003 1.48682L12.5186 7.26536L7.26536 12.5186L1.48682 6.74003L2.24853 2.24853L6.74003 1.48682Z"></path></symbol> <symbol id="icon-category"><path d="M5.44444 0H0.777778C0.571498 0 0.373667 0.0819442 0.227806 0.227806C0.0819442 0.373667 0 0.571498 0 0.777778V5.44444C0 5.65072 0.0819442 5.84855 0.227806 5.99442C0.373667 6.14028 0.571498 6.22222 0.777778 6.22222H5.44444C5.65072 6.22222 5.84855 6.14028 5.99442 5.99442C6.14028 5.84855 6.22222 5.65072 6.22222 5.44444V0.777778C6.22222 0.571498 6.14028 0.373667 5.99442 0.227806C5.84855 0.0819442 5.65072 0 5.44444 0ZM4.66667 4.66667H1.55556V1.55556H4.66667V4.66667ZM13.2222 0H8.55556C8.34928 0 8.15145 0.0819442 8.00558 0.227806C7.85972 0.373667 7.77778 0.571498 7.77778 0.777778V5.44444C7.77778 5.65072 7.85972 5.84855 8.00558 5.99442C8.15145 6.14028 8.34928 6.22222 8.55556 6.22222H13.2222C13.4285 6.22222 13.6263 6.14028 13.7722 5.99442C13.9181 5.84855 14 5.65072 14 5.44444V0.777778C14 0.571498 13.9181 0.373667 13.7722 0.227806C13.6263 0.0819442 13.4285 0 13.2222 0ZM12.4444 4.66667H9.33333V1.55556H12.4444V4.66667ZM5.44444 7.77778H0.777778C0.571498 7.77778 0.373667 7.85972 0.227806 8.00558C0.0819442 8.15145 0 8.34928 0 8.55556V13.2222C0 13.4285 0.0819442 13.6263 0.227806 13.7722C0.373667 13.9181 0.571498 14 0.777778 14H5.44444C5.65072 14 5.84855 13.9181 5.99442 13.7722C6.14028 13.6263 6.22222 13.4285 6.22222 13.2222V8.55556C6.22222 8.34928 6.14028 8.15145 5.99442 8.00558C5.84855 7.85972 5.65072 7.77778 5.44444 7.77778ZM4.66667 12.4444H1.55556V9.33333H4.66667V12.4444ZM10.8889 7.77778C9.17311 7.77778 7.77778 9.17311 7.77778 10.8889C7.77778 12.6047 9.17311 14 10.8889 14C12.6047 14 14 12.6047 14 10.8889C14 9.17311 12.6047 7.77778 10.8889 7.77778ZM10.8889 12.4444C10.031 12.4444 9.33333 11.7468 9.33333 10.8889C9.33333 10.031 10.031 9.33333 10.8889 9.33333C11.7468 9.33333 12.4444 10.031 12.4444 10.8889C12.4444 11.7468 11.7468 12.4444 10.8889 12.4444Z"></path></symbol> <symbol id="icon-query"><path d="M5.98706 11.9735C7.31543 11.9732 8.60551 11.5285 9.65189 10.7103L12.9418 14L14 12.9418L10.7101 9.65213C11.5288 8.60569 11.9738 7.31538 11.9741 5.98674C11.9741 2.6858 9.28818 0 5.98706 0C2.68595 0 0 2.6858 0 5.98674C0 9.28768 2.68595 11.9735 5.98706 11.9735ZM5.98706 1.49669C8.46346 1.49669 10.4774 3.51048 10.4774 5.98674C10.4774 8.46301 8.46346 10.4768 5.98706 10.4768C3.51066 10.4768 1.49677 8.46301 1.49677 5.98674C1.49677 3.51048 3.51066 1.49669 5.98706 1.49669Z"></path></symbol> <symbol id="icon-cross"><path d="M8.14298 6.96147L13.813 1.29147C13.9404 1.14268 14.007 0.951284 13.9994 0.755536C13.9919 0.559788 13.9107 0.374102 13.7722 0.235584C13.6337 0.097066 13.448 0.0159182 13.2522 0.00835727C13.0565 0.000796372 12.8651 0.0673792 12.7163 0.1948L7.04631 5.8648L1.37631 0.187022C1.22752 0.0596013 1.03613 -0.00698084 0.840382 0.000580055C0.644634 0.00814095 0.458948 0.089288 0.32043 0.227806C0.181912 0.366324 0.100764 0.55201 0.093203 0.747758C0.0856421 0.943506 0.152225 1.1349 0.279646 1.28369L5.94965 6.96147L0.271868 12.6315C0.190448 12.7012 0.124321 12.787 0.0776367 12.8835C0.0309519 12.98 0.00471697 13.0851 0.000579584 13.1922C-0.0035578 13.2993 0.0144913 13.4061 0.0535937 13.5059C0.0926962 13.6058 0.152008 13.6964 0.227806 13.7722C0.303604 13.848 0.394252 13.9073 0.494061 13.9464C0.593869 13.9855 0.700683 14.0036 0.807798 13.9994C0.914913 13.9953 1.02002 13.9691 1.11651 13.9224C1.21301 13.8757 1.29881 13.8096 1.36853 13.7281L7.04631 8.05813L12.7163 13.7281C12.8651 13.8556 13.0565 13.9221 13.2522 13.9146C13.448 13.907 13.6337 13.8259 13.7722 13.6874C13.9107 13.5488 13.9919 13.3631 13.9994 13.1674C14.007 12.9717 13.9404 12.7803 13.813 12.6315L8.14298 6.96147Z"></path></symbol> <symbol id="icon-show-all"><path d="M0.800049 9.9999L4.80005 5.9999L0.800049 1.9999L1.60005 0.399902L7.20005 5.9999L1.60005 11.5999L0.800049 9.9999Z"></path></symbol> <symbol id="icon-scroll-up"><path d="M0.29297 7.293L1.70697 8.707L5.99997 4.414L5.99997 14L7.99997 14L7.99997 4.414L12.293 8.707L13.707 7.293L6.99997 0.586L0.29297 7.293Z"></path></symbol> <symbol id="icon-scroll-up-second"><path d="M14.9996 9.79999L8.99961 3.79999L2.99961 9.79999L0.599609 8.59999L8.99961 0.199989L17.3996 8.59999L14.9996 9.79999Z"></path></symbol> <symbol id="icon-clear-input"><path d="M10 0C4.486 0 0 4.486 0 10C0 15.514 4.486 20 10 20C15.514 20 20 15.514 20 10C20 4.486 15.514 0 10 0ZM14.207 12.793L12.793 14.207L10 11.414L7.207 14.207L5.793 12.793L8.586 10L5.793 7.207L7.207 5.793L10 8.586L12.793 5.793L14.207 7.207L11.414 10L14.207 12.793Z"></path></symbol> <symbol id="icon-arrow-back"><path d="M7.78316 0.275664C8.15071 0.643216 8.15071 1.23914 7.78316 1.60669L3.21338 6.17647H15.0588C15.5786 6.17647 16 6.59785 16 7.11765C16 7.63744 15.5786 8.05882 15.0588 8.05882H3.21338L7.78316 12.6286C8.15071 12.9962 8.15071 13.5921 7.78316 13.9596C7.41561 14.3272 6.81969 14.3272 6.45214 13.9596L0.275664 7.78316C-0.0918881 7.41561 -0.0918881 6.81969 0.275664 6.45214L6.45214 0.275664C6.81969 -0.0918881 7.41561 -0.0918881 7.78316 0.275664Z"></path></symbol> <symbol id="icon-facet-arrow-back"><path d="M8.95752 4.09348H2.28627L4.32814 1.64098C4.42362 1.52611 4.46956 1.37801 4.45584 1.22927C4.44213 1.08053 4.36989 0.943331 4.25502 0.847853C4.14015 0.752375 3.99205 0.70644 3.84331 0.720154C3.69457 0.733867 3.55737 0.806106 3.46189 0.920978L0.649395 4.29598C0.630472 4.32282 0.613552 4.35102 0.598769 4.38035C0.598769 4.40848 0.59877 4.42535 0.559395 4.45348C0.533898 4.51797 0.520549 4.58663 0.52002 4.65598C0.520549 4.72533 0.533898 4.79398 0.559395 4.85848C0.559395 4.8866 0.559394 4.90348 0.598769 4.9316C0.613552 4.96093 0.630472 4.98913 0.649395 5.01598L3.46189 8.39098C3.51478 8.45447 3.58101 8.50554 3.65587 8.54054C3.73073 8.57554 3.81238 8.59361 3.89502 8.59348C4.02645 8.59374 4.15382 8.54796 4.25502 8.4641C4.31198 8.41688 4.35906 8.35889 4.39357 8.29344C4.42808 8.228 4.44934 8.15639 4.45613 8.08271C4.46293 8.00904 4.45512 7.93475 4.43316 7.8641C4.41119 7.79344 4.37551 7.72782 4.32814 7.67098L2.28627 5.21848H8.95752C9.1067 5.21848 9.24978 5.15921 9.35527 5.05373C9.46076 4.94824 9.52002 4.80516 9.52002 4.65598C9.52002 4.50679 9.46076 4.36372 9.35527 4.25823C9.24978 4.15274 9.1067 4.09348 8.95752 4.09348Z"></path></symbol> <symbol id="icon-magnifier-facet"><path d="M6.84236 13.684C8.36049 13.6837 9.83487 13.1755 11.0307 12.2403L14.7906 16L16 14.7907L12.2401 11.031C13.1758 9.83508 13.6844 8.36043 13.6847 6.84199C13.6847 3.06949 10.6151 0 6.84236 0C3.06965 0 0 3.06949 0 6.84199C0 10.6145 3.06965 13.684 6.84236 13.684ZM6.84236 1.7105C9.67253 1.7105 11.9741 4.01197 11.9741 6.84199C11.9741 9.67201 9.67253 11.9735 6.84236 11.9735C4.01219 11.9735 1.71059 9.67201 1.71059 6.84199C1.71059 4.01197 4.01219 1.7105 6.84236 1.7105Z"></path></symbol> <symbol id="icon-magnifier-desktop"><path fill-rule="evenodd" clip-rule="evenodd" d="M6.67925 11.9794C9.63033 11.9794 12.0227 9.59568 12.0227 6.65522C12.0227 3.71476 9.63033 1.33104 6.67925 1.33104C3.72817 1.33104 1.33585 3.71476 1.33585 6.65522C1.33585 9.59568 3.72817 11.9794 6.67925 11.9794ZM6.67925 13.3104C10.3681 13.3104 13.3585 10.3308 13.3585 6.65522C13.3585 2.97964 10.3681 0 6.67925 0C2.9904 0 0 2.97964 0 6.65522C0 10.3308 2.9904 13.3104 6.67925 13.3104Z"></path> <path fill-rule="evenodd" clip-rule="evenodd" d="M15.81 15.7995C15.5522 16.0624 15.1293 16.0673 14.8654 15.8105L11.9546 12.977C11.6907 12.7202 11.6858 12.2988 11.9436 12.0359C12.2013 11.773 12.6242 11.7681 12.8881 12.0249L15.7989 14.8583C16.0628 15.1152 16.0677 15.5365 15.81 15.7995Z"></path></symbol> <symbol id="icon-magnifier-mobile"><path d="M6.84236 13.684C8.36049 13.6837 9.83487 13.1755 11.0307 12.2403L14.7906 16L16 14.7907L12.2401 11.031C13.1758 9.83508 13.6844 8.36043 13.6847 6.84199C13.6847 3.06949 10.6151 0 6.84236 0C3.06965 0 0 3.06949 0 6.84199C0 10.6145 3.06965 13.684 6.84236 13.684ZM6.84236 1.7105C9.67253 1.7105 11.9741 4.01197 11.9741 6.84199C11.9741 9.67201 9.67253 11.9735 6.84236 11.9735C4.01219 11.9735 1.71059 9.67201 1.71059 6.84199C1.71059 4.01197 4.01219 1.7105 6.84236 1.7105Z"></path></symbol> <symbol id="icon-cross-clear"><path d="M10 0C4.486 0 0 4.486 0 10C0 15.514 4.486 20 10 20C15.514 20 20 15.514 20 10C20 4.486 15.514 0 10 0ZM14.207 12.793L12.793 14.207L10 11.414L7.207 14.207L5.793 12.793L8.586 10L5.793 7.207L7.207 5.793L10 8.586L12.793 5.793L14.207 7.207L11.414 10L14.207 12.793Z"></path></symbol> <symbol id="icon-mobile-close"><path d="M0.858073 9.11612C0.380766 9.60427 0.380766 10.3957 0.858073 10.8839L9.41363 19.6339C9.89094 20.122 10.6648 20.122 11.1421 19.6339C11.6194 19.1457 11.6194 18.3543 11.1421 17.8661L3.4508 10L11.1421 2.13388C11.6194 1.64573 11.6194 0.854272 11.1421 0.366117C10.6648 -0.122039 9.89094 -0.122039 9.41363 0.366117L0.858073 9.11612Z"></path></symbol> <symbol id="icon-toggler-facet"><path d="M10.5828 6.37918C10.739 6.53381 10.9499 6.62054 11.1696 6.62054C11.3894 6.62054 11.6003 6.53381 11.7564 6.37918C11.8335 6.30326 11.8947 6.21275 11.9365 6.11294C11.9783 6.01312 11.9999 5.90599 11.9999 5.79778C11.9999 5.68957 11.9783 5.58244 11.9365 5.48263C11.8947 5.38282 11.8335 5.29231 11.7564 5.21638L7.06682 0.620383C6.9103 0.465975 6.69928 0.379404 6.47942 0.379404C6.25956 0.379404 6.04854 0.465975 5.89202 0.620383L1.20242 5.21638C1.12532 5.29231 1.06409 5.38282 1.0223 5.48263C0.980507 5.58244 0.958984 5.68957 0.958984 5.79778C0.958984 5.90599 0.980507 6.01312 1.0223 6.11294C1.06409 6.21275 1.12532 6.30326 1.20242 6.37918C1.35858 6.53381 1.56946 6.62054 1.78922 6.62054C2.00898 6.62054 2.21986 6.53381 2.37602 6.37918L6.48122 2.60998L10.5828 6.37918Z"></path></symbol> <symbol id="icon-cross-mobile"><path d="M4.93909 3.99886L7.80299 1.14162C7.92841 1.01621 7.99886 0.846111 7.99886 0.668748C7.99886 0.491385 7.92841 0.321286 7.80299 0.195872C7.67758 0.0704572 7.50748 0 7.33012 0C7.15275 0 6.98265 0.0704572 6.85724 0.195872L4 3.05977L1.14276 0.195872C1.01735 0.0704572 0.847248 -1.32146e-09 0.669885 0C0.492522 1.32146e-09 0.322423 0.0704572 0.197008 0.195872C0.0715939 0.321286 0.00113664 0.491385 0.00113664 0.668748C0.00113663 0.846111 0.0715939 1.01621 0.197008 1.14162L3.06091 3.99886L0.197008 6.8561C0.134583 6.91802 0.085035 6.99168 0.0512219 7.07284C0.0174088 7.154 0 7.24106 0 7.32898C0 7.4169 0.0174088 7.50395 0.0512219 7.58512C0.085035 7.66628 0.134583 7.73994 0.197008 7.80185C0.258924 7.86428 0.332587 7.91383 0.413748 7.94764C0.494909 7.98145 0.581962 7.99886 0.669885 7.99886C0.757808 7.99886 0.844861 7.98145 0.926022 7.94764C1.00718 7.91383 1.08085 7.86428 1.14276 7.80185L4 4.93796L6.85724 7.80185C6.91915 7.86428 6.99282 7.91383 7.07398 7.94764C7.15514 7.98145 7.24219 7.99886 7.33012 7.99886C7.41804 7.99886 7.50509 7.98145 7.58625 7.94764C7.66741 7.91383 7.74108 7.86428 7.80299 7.80185C7.86542 7.73994 7.91497 7.66628 7.94878 7.58512C7.98259 7.50395 8 7.4169 8 7.32898C8 7.24106 7.98259 7.154 7.94878 7.07284C7.91497 6.99168 7.86542 6.91802 7.80299 6.8561L4.93909 3.99886Z" fill="#333333"></path></symbol> <symbol id="icon-chevron-right"><path d="M8.99713 7.01098C8.99769 7.24422 8.89806 7.47026 8.71553 7.64986L2.59371 13.6394C2.38589 13.8432 2.08725 13.9714 1.76349 13.9958C1.43974 14.0201 1.11739 13.9386 0.867353 13.7692C0.617317 13.5997 0.460079 13.3562 0.43023 13.0923C0.40038 12.8283 0.500363 12.5655 0.708185 12.3616L6.19334 7.01098L0.904084 1.66034C0.802381 1.55824 0.726431 1.44074 0.680601 1.31463C0.634771 1.18851 0.619964 1.05625 0.637031 0.925448C0.654097 0.794649 0.702701 0.667889 0.780048 0.552454C0.857396 0.437019 0.961963 0.335186 1.08774 0.252808C1.21363 0.161387 1.36132 0.0921497 1.52156 0.0494318C1.68179 0.00671382 1.85112 -0.00856214 2.01894 0.00455851C2.18676 0.0176782 2.34944 0.0589122 2.4968 0.125678C2.64416 0.192445 2.77302 0.283305 2.87531 0.392564L8.78899 6.38208C8.94267 6.56684 9.01595 6.78827 8.99713 7.01098Z" fill="#AAAAAA"></path></symbol> <symbol id="icon-sort"><path fill-rule="evenodd" clip-rule="evenodd" d="M1.68813 2.80373H11.2017C11.6874 2.80373 12.0812 3.19751 12.0812 3.68327C12.0812 4.16902 11.6874 4.56281 11.2017 4.56281H1.68813C1.20238 4.56281 0.808594 4.16902 0.808594 3.68327C0.808594 3.19751 1.20238 2.80373 1.68813 2.80373Z"></path> <path d="M1.68813 6.20197H7.57748C8.06323 6.20197 8.45702 6.59575 8.45702 7.08151C8.45702 7.56726 8.06323 7.96104 7.57748 7.96104H1.68813C1.20238 7.96104 0.808594 7.56726 0.808594 7.08151C0.808594 6.59575 1.20238 6.20197 1.68813 6.20197Z"></path> <path d="M1.68813 9.60005H4.85932C5.34507 9.60005 5.73886 9.99384 5.73886 10.4796C5.73886 10.9653 5.34507 11.3591 4.85932 11.3591H1.68813C1.20238 11.3591 0.808594 10.9653 0.808594 10.4796C0.808594 9.99384 1.20238 9.60005 1.68813 9.60005Z"></path> <path fill-rule="evenodd" clip-rule="evenodd" d="M20.9363 9.63392L16.9001 13.6702C16.5743 13.996 16.0461 13.996 15.7203 13.6702L11.684 9.63392C11.3582 9.30813 11.3582 8.77992 11.684 8.45413C12.0098 8.12834 12.538 8.12834 12.8638 8.45413L15.4759 11.0663L15.4759 0.919824C15.4759 0.459087 15.8494 0.0855868 16.3102 0.0855868C16.7709 0.0855867 17.1444 0.459087 17.1444 0.919824L17.1444 11.0663L19.7565 8.45413C20.0823 8.12834 20.6105 8.12834 20.9363 8.45413C21.2621 8.77992 21.2621 9.30813 20.9363 9.63392Z"></path></symbol> <symbol id="icon-filters"><path d="M11.4331 3.79061C11.4331 3.23837 10.9854 2.79069 10.4331 2.79069H1.0009C0.448658 2.79069 0.000976562 3.23837 0.000976562 3.79061C0.000976562 4.34286 0.448659 4.79054 1.0009 4.79054H10.4332C10.9854 4.79054 11.4331 4.34286 11.4331 3.79061Z"></path> <path d="M19.9991 3.79061C19.9991 3.23837 19.5514 2.79069 18.9992 2.79069H16.5549C16.0026 2.79069 15.555 3.23837 15.555 3.79061C15.555 4.34286 16.0026 4.79054 16.5549 4.79054H18.9992C19.5514 4.79054 19.9991 4.34286 19.9991 3.79061Z"></path> <path fill-rule="evenodd" clip-rule="evenodd" d="M13.3329 5.45719C12.4125 5.45719 11.6663 4.71105 11.6663 3.79064C11.6663 2.87023 12.4125 2.1241 13.3329 2.1241C14.2533 2.1241 14.9994 2.87023 14.9994 3.79064C14.9994 4.71105 14.2533 5.45719 13.3329 5.45719ZM13.3329 7.12373C11.4921 7.12373 9.9998 5.63146 9.9998 3.79064C9.9998 1.94983 11.4921 0.45755 13.3329 0.45755C15.1737 0.45755 16.666 1.94983 16.666 3.79064C16.666 5.63146 15.1737 7.12373 13.3329 7.12373Z"></path> <path d="M8.5679 12.2091C8.5679 11.6569 9.01558 11.2092 9.56783 11.2092H19.0001C19.5523 11.2092 20 11.6569 20 12.2091C20 12.7614 19.5523 13.209 19.0001 13.209H9.56783C9.01558 13.209 8.5679 12.7614 8.5679 12.2091Z"></path> <path d="M0.00189972 12.2091C0.00189972 11.6569 0.449581 11.2092 1.00183 11.2092H3.44609C3.99834 11.2092 4.44602 11.6569 4.44602 12.2091C4.44602 12.7614 3.99834 13.209 3.44609 13.209H1.00182C0.449579 13.209 0.00189972 12.7614 0.00189972 12.2091Z"></path> <path fill-rule="evenodd" clip-rule="evenodd" d="M6.66808 13.8757C7.58849 13.8757 8.33463 13.1296 8.33463 12.2091C8.33463 11.2887 7.58849 10.5426 6.66808 10.5426C5.74767 10.5426 5.00154 11.2887 5.00154 12.2091C5.00154 13.1296 5.74767 13.8757 6.66808 13.8757ZM6.66808 15.5422C8.5089 15.5422 10.0012 14.05 10.0012 12.2091C10.0012 10.3683 8.5089 8.87605 6.66808 8.87605C4.82727 8.87605 3.33499 10.3683 3.33499 12.2091C3.33499 14.05 4.82727 15.5422 6.66808 15.5422Z"></path></symbol> <symbol id="icon-pagination-prev"><path d="M0.233398 4.71629L4.71619 0.233499C4.85628 0.0934121 5.04306 0.0934124 5.18315 0.233499C5.32323 0.373587 5.32323 0.56037 5.18315 0.700457L0.933834 4.94977L5.18315 9.19908C5.32323 9.33917 5.32323 9.52595 5.18315 9.66604C5.04306 9.80612 4.85628 9.80612 4.71619 9.66604L0.233398 5.18325C0.093311 5.04316 0.093311 4.85638 0.233398 4.71629Z" stroke="none"></path></symbol> <symbol id="icon-pagination-next"><path d="M9.66602 5.18325L5.18323 9.66604C5.04314 9.80612 4.85636 9.80612 4.71627 9.66604C4.57618 9.52595 4.57618 9.33917 4.71627 9.19908L8.96558 4.94977L4.71627 0.700457C4.57618 0.56037 4.57618 0.373587 4.71627 0.233499C4.85636 0.0934124 5.04314 0.0934121 5.18323 0.233499L9.66602 4.71629C9.8061 4.85638 9.8061 5.04316 9.66602 5.18325Z" stroke="none"></path></symbol> <symbol id="icon-search-logo"><path fill-rule="evenodd" clip-rule="evenodd" d="M6.87758 0.0613847C5.22056 0.32319 3.64088 1.15098 2.50914 2.35035C1.61796 3.29489 1.0631 4.30071 0.743746 5.54979C-0.298145 9.62674 2.092 13.6661 6.15949 14.7026C7.04249 14.9276 9.10101 14.9709 9.77856 14.7788L10.21 14.6564L11.6266 16.3298L13.043 18.0031L13.5405 17.6007C13.8142 17.3794 14.4015 16.9093 14.8457 16.5561C15.299 16.1957 15.6196 15.8558 15.5763 15.7815C15.534 15.7088 15.0882 15.1618 14.5859 14.566C14.0836 13.9702 13.6028 13.392 13.5176 13.2813C13.3839 13.1078 13.4476 12.9746 13.9772 12.3183C15.1847 10.822 15.7071 9.30812 15.6932 7.34379C15.6697 3.96054 13.4562 1.09862 10.2086 0.252051C9.31848 0.0200977 7.7186 -0.0715042 6.87758 0.0613847ZM9.71337 3.60725C10.9028 4.13676 11.703 5.11766 12.0101 6.42332C12.2308 7.36173 12.2136 7.85103 11.9275 8.77788C11.3262 10.7262 9.44839 11.9171 7.47117 11.6044C4.19118 11.0855 2.92183 6.82054 5.33002 4.41061C5.95837 3.78167 6.38105 3.549 7.24203 3.35797C8.07439 3.17332 8.93297 3.25987 9.71337 3.60725ZM7.66363 4.2268C7.78704 4.96624 7.81073 4.99657 8.26456 4.99657C8.83675 4.99657 9.39173 5.24766 9.81477 5.69785L10.1621 6.06775L10.6267 5.83062C10.882 5.70025 11.0911 5.5528 11.0911 5.50309C11.0911 5.45325 10.9276 5.21408 10.7278 4.97141C10.2445 4.38485 9.24547 3.90854 8.32266 3.82476L7.58544 3.75784L7.66363 4.2268Z"></path></symbol></svg>