<svg xmlns="http://www.w3.org/2000/svg" width="36" height="35" viewBox="0 0 36 35" fill="none">
												<path fill-rule="evenodd" clip-rule="evenodd" d="M12.3925 0H23.0696C32.814 0 35.1212 2.26529 35.1212 11.8325V22.3155C35.1212 31.8827 32.814 34.148 23.0696 34.148H12.3925C2.64806 34.148 0.34082 31.8827 0.34082 22.3155V11.8325C0.34082 2.26529 2.64806 0 12.3925 0Z" fill="#7360F2"></path>
												<path d="M25.7474 7.90853C25.1838 7.38635 22.9064 5.72616 17.8335 5.7036C17.8335 5.7036 11.8512 5.34135 8.93496 8.02746C7.31161 9.65792 6.74054 12.0436 6.68031 15.0014C6.62007 17.9592 6.54213 23.5023 11.8631 25.0053H11.8682L11.8648 27.2987C11.8648 27.2987 11.8308 28.2272 12.4396 28.4166C13.1761 28.6462 13.6083 27.9405 14.3114 27.1798C14.6974 26.7622 15.2303 26.1488 15.6319 25.6799C19.271 25.9875 22.0698 25.2845 22.3877 25.1806C23.1225 24.9414 27.2802 24.4066 27.9565 18.8638C28.6545 13.1509 27.6188 9.53728 25.7474 7.90853ZM26.3641 18.4541C25.7933 23.082 22.4211 23.3728 21.7993 23.573C21.5348 23.6585 19.0767 24.2726 15.9855 24.0699C15.9855 24.0699 13.6822 26.8603 12.9627 27.5858C12.8504 27.6992 12.7184 27.745 12.6302 27.7225C12.5063 27.6921 12.4723 27.5448 12.4737 27.3295C12.4757 27.0219 12.4934 23.5184 12.4934 23.5184C7.99226 22.2635 8.25465 17.5457 8.3057 15.0752C8.35675 12.6048 8.81891 10.581 10.1918 9.2198C12.6585 6.97626 17.7399 7.31151 17.7399 7.31151C22.031 7.3303 24.0873 8.6279 24.5641 9.0626C26.1473 10.4238 26.9539 13.6809 26.3641 18.4527V18.4541Z" fill="white"></path>
												<path d="M18.5762 19.0158C18.5762 19.0158 18.9787 19.0498 19.1954 18.7828L19.6179 18.2513C19.8217 17.9877 20.3136 17.8196 20.7952 18.0879C21.1562 18.2937 21.5066 18.5175 21.8452 18.7583C22.1648 18.9934 22.8193 19.5395 22.8214 19.5395C23.1332 19.8027 23.2052 20.1893 22.9929 20.5968C22.9929 20.5992 22.9912 20.6033 22.9912 20.6053C22.7574 21.0106 22.4606 21.3761 22.1118 21.6881C22.1077 21.6901 22.1077 21.6922 22.104 21.6942C21.801 21.9474 21.5033 22.0913 21.211 22.1259C21.168 22.1334 21.1242 22.1362 21.0806 22.1341C20.9517 22.1353 20.8234 22.1156 20.7008 22.0756L20.6913 22.0617C20.2409 21.9347 19.4889 21.6168 18.2365 20.9259C17.5118 20.5309 16.8218 20.0751 16.174 19.5636C15.8493 19.3074 15.5396 19.0327 15.2464 18.741L15.2151 18.7098L15.1839 18.6785L15.1526 18.6469C15.1421 18.6367 15.1319 18.6262 15.1214 18.6157C14.8296 18.3225 14.5549 18.0128 14.2987 17.6881C13.7872 17.0404 13.3314 16.3507 12.9363 15.6262C12.2454 14.3735 11.9274 13.6223 11.8004 13.1712L11.7865 13.1617C11.7467 13.0391 11.727 12.9109 11.7284 12.782C11.726 12.7383 11.7286 12.6946 11.7362 12.6516C11.7727 12.3599 11.9168 12.0622 12.1686 11.7583C12.1706 11.7546 12.1727 11.7546 12.1747 11.7505C12.4866 11.4018 12.8522 11.1051 13.2576 10.8715C13.2596 10.8715 13.2637 10.8695 13.2661 10.8695C13.6737 10.6572 14.0602 10.7292 14.3231 11.0393C14.3252 11.0413 14.8704 11.6958 15.1044 12.0154C15.3453 12.3543 15.5691 12.705 15.7749 13.0663C16.0432 13.5475 15.8751 14.0404 15.6115 14.2435L15.0799 14.666C14.8116 14.8827 14.8469 15.2851 14.8469 15.2851C14.8469 15.2851 15.6343 18.2648 18.5762 19.0158Z" fill="white"></path>
											</svg>