<svg width="16" height="10" viewBox="0 0 16 10" fill="none" xmlns="http://www.w3.org/2000/svg"><g clip-path="url(#clip0_1501_18667)"><path d="M15.982.693v.23c-.067.172-.123.35-.204.517-.297.614-.702 1.159-1.107 1.703-.375.504-.753 1.005-1.117 1.516-.269.378-.238.68.091 1.013.476.483.972.948 1.434 1.444.388.417.787.838.903 1.431v.051c-.105.305-.211.44-.532.453-.357.014-.714-.018-1.07-.009-.446.011-.933-.003-1.378-.014a1.722 1.722 0 01-1.219-.505c-.31-.306-.595-.64-.89-.961-.198-.216-.396-.433-.668-.56-.145-.069-.279-.063-.414.046a1.042 1.042 0 00-.373.633c-.047.249-.07.504-.084.757-.022.421-.205.597-.62.607-.315.009-.63-.004-.944.004-.87.02-1.666-.224-2.408-.666-.555-.331-1.101-.683-1.527-1.174-.411-.473-.807-.963-1.164-1.478A24.919 24.919 0 011.5 3.836C1.117 3.159.78 2.454.428 1.757c-.147-.29-.273-.59-.41-.886v-.23C.136.462.315.415.514.413 1.261.405 2.01.39 2.757.395c.294.003.529.14.644.435.05.126.1.252.16.374.32.641.636 1.285.969 1.92.2.384.423.76.75 1.053.12.108.265.196.414.26.144.062.28-.017.36-.147.145-.233.169-.495.203-.756a6.586 6.586 0 00-.018-1.98c-.044-.258-.078-.538-.326-.694-.147-.093-.32-.15-.486-.207C5.31.612 5.277.568 5.37.485c.136-.123.28-.26.446-.322.215-.08.453-.11.684-.128.356-.028.714-.043 1.07-.033.406.012.813.043 1.216.093.275.034.487.182.535.483.03.183.064.369.061.553-.01.777-.042 1.554-.048 2.332-.001.221.034.452.102.662.097.302.384.409.621.162.115-.119.25-.22.353-.347.551-.684.992-1.438 1.368-2.23.148-.31.277-.629.412-.945.104-.243.247-.348.48-.347.378 0 .756.002 1.134-.002.522-.005 1.044-.026 1.566-.02.24.004.493.025.613.297z" fill="#fff"></path></g><defs><clipPath id="clip0_1501_18667"><path fill="#fff" d="M0 0h16v9.091H0z"></path></clipPath></defs></svg>