<svg class="b24-crm-button-icon" xmlns="http://www.w3.org/2000/svg" width="28" height="28" viewBox="0 0 28 30">
								<path class="b24-crm-button-call-icon" fill="#FFFFFF" fill-rule="evenodd" d="M940.872414,978.904882 C939.924716,977.937215 938.741602,977.937215 937.79994,978.904882 C937.08162,979.641558 936.54439,979.878792 935.838143,980.627954 C935.644982,980.833973 935.482002,980.877674 935.246586,980.740328 C934.781791,980.478121 934.286815,980.265859 933.840129,979.97868 C931.757607,978.623946 930.013117,976.882145 928.467826,974.921839 C927.701216,973.947929 927.019115,972.905345 926.542247,971.731659 C926.445666,971.494424 926.463775,971.338349 926.6509,971.144815 C927.36922,970.426869 927.610672,970.164662 928.316918,969.427987 C929.300835,968.404132 929.300835,967.205474 928.310882,966.175376 C927.749506,965.588533 927.206723,964.77769 926.749111,964.14109 C926.29156,963.50449 925.932581,962.747962 925.347061,962.154875 C924.399362,961.199694 923.216248,961.199694 922.274586,962.161118 C921.55023,962.897794 920.856056,963.653199 920.119628,964.377388 C919.437527,965.045391 919.093458,965.863226 919.021022,966.818407 C918.906333,968.372917 919.274547,969.840026 919.793668,971.269676 C920.856056,974.228864 922.473784,976.857173 924.43558,979.266977 C927.085514,982.52583 930.248533,985.104195 933.948783,986.964613 C935.6148,987.801177 937.341181,988.444207 939.218469,988.550339 C940.510236,988.625255 941.632988,988.288132 942.532396,987.245549 C943.148098,986.533845 943.842272,985.884572 944.494192,985.204083 C945.459999,984.192715 945.466036,982.969084 944.506265,981.970202 C943.359368,980.777786 942.025347,980.091055 940.872414,978.904882 Z M940.382358,973.54478 L940.649524,973.497583 C941.23257,973.394635 941.603198,972.790811 941.439977,972.202844 C940.97488,970.527406 940.107887,969.010104 938.90256,967.758442 C937.61538,966.427182 936.045641,965.504215 934.314009,965.050223 C933.739293,964.899516 933.16512,965.298008 933.082785,965.905204 L933.044877,966.18514 C932.974072,966.707431 933.297859,967.194823 933.791507,967.32705 C935.117621,967.682278 936.321439,968.391422 937.308977,969.412841 C938.23579,970.371393 938.90093,971.53815 939.261598,972.824711 C939.401641,973.324464 939.886476,973.632369 940.382358,973.54478 Z M942.940854,963.694228 C940.618932,961.29279 937.740886,959.69052 934.559939,959.020645 C934.000194,958.902777 933.461152,959.302642 933.381836,959.8878 L933.343988,960.167112 C933.271069,960.705385 933.615682,961.208072 934.130397,961.317762 C936.868581,961.901546 939.347628,963.286122 941.347272,965.348626 C943.231864,967.297758 944.53673,969.7065 945.149595,972.360343 C945.27189,972.889813 945.766987,973.232554 946.285807,973.140969 L946.55074,973.094209 C947.119782,972.993697 947.484193,972.415781 947.350127,971.835056 C946.638568,968.753629 945.126778,965.960567 942.940854,963.694228 Z" transform="translate(-919 -959)"></path>
							</svg>