<svg xmlns="http://www.w3.org/2000/svg" width="20" height="18" viewBox="0 0 20 18" fill="none">
							<path d="M10.9095 0.00010853L19.9301 0V2H10.9095V16H16V18H4V16H9.09136V2H0.0698596V0H9.09136L10.9095 0.00010853ZM3.63682 3.343L6.20773 6.172C6.71626 6.73142 7.06258 7.44415 7.20287 8.22007C7.34316 8.99599 7.27114 9.80024 6.99591 10.5311C6.72068 11.262 6.25459 11.8867 5.6566 12.3262C5.05861 12.7658 4.35556 13.0004 3.63636 13.0004C2.91717 13.0004 2.21412 12.7658 1.61613 12.3262C1.01814 11.8867 0.552054 11.262 0.276821 10.5311C0.00158802 9.80024 -0.0704351 8.99599 0.0698596 8.22007C0.210154 7.44415 0.556466 6.73142 1.065 6.172L3.63682 3.343ZM16.3641 3.343L18.935 6.172C19.4435 6.73142 19.7898 7.44415 19.9301 8.22007C20.0704 8.99599 19.9984 9.80024 19.7232 10.5311C19.4479 11.262 18.9819 11.8867 18.3839 12.3262C17.7859 12.7658 17.0828 13.0004 16.3636 13.0004C15.6444 13.0004 14.9414 12.7658 14.3434 12.3262C13.7454 11.8867 13.2793 11.262 13.0041 10.5311C12.7289 9.80024 12.6568 8.99599 12.7971 8.22007C12.9374 7.44415 13.2837 6.73142 13.7923 6.172L16.3641 3.343ZM3.63682 6.172L2.35136 7.586C2.09703 7.86568 1.92381 8.22205 1.85361 8.61002C1.78341 8.998 1.81939 9.40017 1.95699 9.76565C2.09458 10.1311 2.32762 10.4435 2.62663 10.6633C2.92564 10.8831 3.27719 11.0004 3.63682 11.0004C3.99645 11.0004 4.34799 10.8831 4.647 10.6633C4.94601 10.4435 5.17905 10.1311 5.31665 9.76565C5.45425 9.40017 5.49022 8.998 5.42002 8.61002C5.34983 8.22205 5.17661 7.86568 4.92227 7.586L3.63682 6.172ZM16.3641 6.172L15.0786 7.586C14.8243 7.86568 14.6511 8.22205 14.5809 8.61002C14.5107 8.998 14.5467 9.40017 14.6843 9.76565C14.8219 10.1311 15.0549 10.4435 15.3539 10.6633C15.6529 10.8831 16.0045 11.0004 16.3641 11.0004C16.7237 11.0004 17.0753 10.8831 17.3743 10.6633C17.6733 10.4435 17.9063 10.1311 18.0439 9.76565C18.1815 9.40017 18.2175 8.998 18.1473 8.61002C18.0771 8.22205 17.9039 7.86568 17.6495 7.586L16.3641 6.172Z" fill="#0F0F0F"></path>
						</svg>