<svg xmlns="http://www.w3.org/2000/svg" width="14" height="23" viewBox="0 0 14 23" fill="none">
									<path fill-rule="evenodd" clip-rule="evenodd" d="M12.9276 6.49746C12.9276 9.55933 10.4 12.0554 7.29933 12.0554C4.16514 12.0554 1.63751 9.55933 1.63751 6.49746C1.63751 3.43557 4.16514 0.939453 7.29933 0.939453C10.4 0.939453 12.9276 3.43557 12.9276 6.49746ZM9.62484 6.49746C9.62484 5.23277 8.58003 4.20104 7.29933 4.20104C5.98504 4.20104 4.94023 5.23277 4.97399 6.49746C4.97399 7.76217 6.0188 8.79383 7.29933 8.79383C8.58003 8.79383 9.62484 7.76217 9.62484 6.49746Z" fill="white"></path>
									<path d="M12.8265 15.2838C11.8154 15.9161 10.7033 16.3488 9.55746 16.6151L12.7591 19.6769C13.3994 20.3094 13.3994 21.341 12.7591 21.9734C12.1188 22.6057 11.074 22.6057 10.4338 21.9734L7.3331 18.9114L4.23259 21.9734C3.89556 22.2729 3.49114 22.4393 3.05302 22.4393C2.6149 22.4393 2.21049 22.3063 1.87347 21.9734C1.23312 21.341 1.23312 20.3094 1.87347 19.6769L5.00776 16.5817C3.86185 16.3155 2.7497 15.8829 1.73866 15.2505C0.963508 14.7846 0.727598 13.7862 1.16572 13.0207C1.67126 12.2552 2.6823 12.0556 3.45744 12.5215C5.74916 13.9526 8.74854 13.9526 11.0403 12.5215C11.8154 12.0222 12.8602 12.2552 13.332 13.0207C13.8375 13.7862 13.6017 14.8178 12.8265 15.2838Z" fill="white"></path>
								</svg>