<svg width="16" height="16" viewBox="0 0 16 16" fill="none" xmlns="http://www.w3.org/2000/svg"><g clip-path="url(#clip0_1501_18662)"><path d="M8.056 14.859a6.996 6.996 0 01-3.376-.863l-3.867 1.23 1.261-3.72a6.86 6.86 0 01-1.002-3.578c0-3.827 3.127-6.93 6.984-6.93s6.984 3.103 6.984 6.93c0 3.828-3.126 6.93-6.984 6.93zm0-12.757c-3.238 0-5.872 2.614-5.872 5.826 0 1.275.416 2.456 1.119 3.417l-.734 2.163 2.257-.717a5.87 5.87 0 003.23.964c3.238 0 5.872-2.614 5.872-5.826 0-3.213-2.634-5.827-5.872-5.827zm3.527 7.423c-.043-.071-.157-.114-.328-.199s-1.013-.496-1.17-.552c-.157-.057-.271-.085-.385.085-.114.17-.443.552-.543.666-.1.113-.2.127-.37.042-.172-.085-.723-.264-1.377-.843a5.115 5.115 0 01-.953-1.176c-.1-.17-.01-.262.075-.346.077-.077.172-.199.257-.298.086-.1.115-.17.171-.283.058-.114.029-.213-.014-.298-.043-.085-.385-.92-.528-1.261-.142-.34-.285-.283-.385-.283-.1 0-.214-.014-.328-.014-.114 0-.3.042-.457.212-.157.17-.599.581-.599 1.417 0 .836.614 1.643.7 1.757.085.113 1.183 1.884 2.924 2.564 1.74.68 1.74.453 2.054.425.314-.028 1.013-.41 1.156-.808.142-.396.142-.737.1-.807z" fill="#fff"></path></g><defs><clipPath id="clip0_1501_18662"><path fill="#fff" d="M0 0h16v16H0z"></path></clipPath></defs></svg>