<svg width="22" height="22" viewBox="0 0 22 22" xmlns="http://www.w3.org/2000/svg">
				<path d="M9 18C4.02944 18 0 13.9706 0 9C0 4.02944 4.02944 0 9 0C13.9706 0 18 4.02944 18 9C18 13.9706 13.9706 18 9 18ZM8.99998 16C12.866 16 16 12.866 16 9C16 5.13401 12.866 2 8.99998 2C5.13398 2 1.99998 5.13401 1.99998 9C1.99998 12.866 5.13398 16 8.99998 16ZM21.7071 21.7071C22.0977 21.3166 22.0977 20.6834 21.7071 20.2929L17.7071 16.2929C17.3166 15.9024 16.6834 15.9024 16.2929 16.2929C15.9024 16.6834 15.9024 17.3166 16.2929 17.7071L20.2929 21.7071C20.6834 22.0976 21.3166 22.0976 21.7071 21.7071Z"></path>
			</svg>