<svg width="13" height="13" viewBox="0 0 13 13" fill="none" xmlns="http://www.w3.org/2000/svg">
									<path d="M7.21094 11.4766L7.21094 7.21094L11.4766 7.21094C11.9031 7.21094 12.1875 6.92656 12.1875 6.5C12.1875 6.07344 11.9031 5.78906 11.4766 5.78906L7.21094 5.78906L7.21094 1.52344C7.21094 1.09687 6.92656 0.8125 6.5 0.8125C6.07344 0.8125 5.78906 1.09687 5.78906 1.52344L5.78906 5.78906L1.52344 5.78906C1.09687 5.78906 0.8125 6.07344 0.8125 6.5C0.8125 6.92656 1.09687 7.21094 1.52344 7.21094L5.78906 7.21094L5.78906 11.4766C5.78906 11.9031 6.07344 12.1875 6.5 12.1875C6.92656 12.1875 7.21094 11.9031 7.21094 11.4766Z" fill="#1F2D3D"></path>
									</svg>