<svg width="42" height="42" viewBox="0 0 42 42" fill="none" xmlns="http://www.w3.org/2000/svg">
<path d="M21 39C30.9411 39 39 30.9411 39 21C39 11.0589 30.9411 3 21 3C11.0589 3 3 11.0589 3 21C3 30.9411 11.0589 39 21 39Z" fill="#FFDD67"/>
<path d="M14.0996 19.56C15.7565 19.56 17.0996 18.2169 17.0996 16.56C17.0996 14.9031 15.7565 13.56 14.0996 13.56C12.4428 13.56 11.0996 14.9031 11.0996 16.56C11.0996 18.2169 12.4428 19.56 14.0996 19.56Z" fill="#664E27"/>
<path d="M27.8999 19.56C29.5568 19.56 30.8999 18.2169 30.8999 16.56C30.8999 14.9031 29.5568 13.56 27.8999 13.56C26.243 13.56 24.8999 14.9031 24.8999 16.56C24.8999 18.2169 26.243 19.56 27.8999 19.56Z" fill="#664E27"/>
<path d="M30.6597 24C28.0797 27.66 24.9597 28.56 20.9997 28.56C17.0397 28.56 13.9197 27.66 11.3397 24C10.9797 23.52 10.0197 23.82 10.2597 24.54C11.6397 29.34 16.2597 32.16 21.0597 32.16C25.8597 32.16 30.4797 29.34 31.8597 24.54C31.9797 23.82 31.0197 23.52 30.6597 24Z" fill="#664E27"/>
</svg>
