<svg width="42" height="42" viewBox="0 0 42 42" fill="none" xmlns="http://www.w3.org/2000/svg">
<path d="M12.2998 38.64C16.4419 38.64 19.7998 38.2371 19.7998 37.74C19.7998 37.2429 16.4419 36.84 12.2998 36.84C8.15767 36.84 4.7998 37.2429 4.7998 37.74C4.7998 38.2371 8.15767 38.64 12.2998 38.64Z" fill="#65B1EF"/>
<path d="M28.1999 39C34.1646 39 38.9999 38.5165 38.9999 37.92C38.9999 37.3235 34.1646 36.84 28.1999 36.84C22.2352 36.84 17.3999 37.3235 17.3999 37.92C17.3999 38.5165 22.2352 39 28.1999 39Z" fill="#65B1EF"/>
<path d="M21 39C30.9411 39 39 30.9411 39 21C39 11.0589 30.9411 3 21 3C11.0589 3 3 11.0589 3 21C3 30.9411 11.0589 39 21 39Z" fill="#FFDD67"/>
<path d="M28.6202 29.4C27.7802 27.24 25.7402 25.8 21.0002 25.8C16.2002 25.8 14.2202 27.24 13.3802 29.4C12.9602 30.54 13.5602 32.4 13.5602 32.4C14.3402 34.74 14.2202 35.4 21.0002 35.4C27.7802 35.4 27.6602 34.74 28.4402 32.4C28.4402 32.4 29.1002 30.54 28.6202 29.4Z" fill="#664E27"/>
<path d="M26.4001 28.8C26.4601 28.62 26.4001 28.44 26.2801 28.32C26.2801 28.32 25.0801 27 21.0001 27C16.9201 27 15.7201 28.32 15.7201 28.32C15.6001 28.38 15.6001 28.62 15.6001 28.8L15.7201 29.16C15.7801 29.34 15.9001 29.46 16.0201 29.46H25.9801C26.1001 29.46 26.2801 29.34 26.2801 29.16L26.4001 28.8Z" fill="white"/>
<path d="M28.4998 38.1H32.5798C37.4998 32.16 31.6798 26.1 33.1198 20.22C31.7398 20.22 30.3598 21.72 29.0398 21.72C27.1198 27.42 33.4198 32.16 28.4998 38.1ZM13.4998 38.1H9.4198C4.4998 32.16 10.3198 26.1 8.8798 20.22C10.2598 20.22 11.6398 21.72 12.9598 21.72C14.8798 27.42 8.5798 32.16 13.4998 38.1Z" fill="#65B1EF"/>
<path d="M26.2201 12.78C28.0201 14.58 30.5401 15.48 33.0601 15.24C33.4201 15.18 33.6001 16.5 33.1801 16.56C30.2401 16.8 27.3601 15.78 25.3201 13.68C24.9601 13.38 25.9801 12.54 26.2201 12.78ZM9.00006 15.24C11.5201 15.48 14.0401 14.58 15.8401 12.78C16.0801 12.54 17.1001 13.38 16.8001 13.68C14.7601 15.78 11.8201 16.8 8.94006 16.56C8.40006 16.56 8.64006 15.24 9.00006 15.24Z" fill="#917524"/>
<path d="M23.3398 19.98C25.8598 24.78 30.9598 24.78 33.4798 19.98C33.5998 19.74 33.2998 19.62 32.8798 19.38C30.3598 21.36 26.2198 21.18 23.9398 19.38C23.5798 19.62 23.2198 19.74 23.3398 19.98ZM8.51983 19.98C11.0398 24.78 16.1398 24.78 18.6598 19.98C18.7798 19.74 18.4798 19.62 18.0598 19.38C15.5398 21.36 11.3998 21.18 9.11983 19.38C8.69983 19.62 8.39983 19.74 8.51983 19.98Z" fill="#664E27"/>
</svg>
