<svg width="42" height="42" viewBox="0 0 42 42" fill="none" xmlns="http://www.w3.org/2000/svg">
<path d="M3.28022 24.1234C5.01922 33.9141 14.3139 40.4612 24.1482 38.7193C33.9225 36.9774 40.4588 27.6673 38.7198 17.8166C36.9808 8.08599 27.6262 1.53887 17.8518 3.28077C8.07746 4.9626 1.54123 14.3328 3.28022 24.1234Z" fill="#FFDD67"/>
<path d="M27.2508 19.6183C28.9097 19.6183 30.2546 18.2734 30.2546 16.6145C30.2546 14.9556 28.9097 13.6108 27.2508 13.6108C25.5919 13.6108 24.2471 14.9556 24.2471 16.6145C24.2471 18.2734 25.5919 19.6183 27.2508 19.6183Z" fill="#664E27"/>
<path d="M13.6136 22.0213C15.2725 22.0213 16.6173 20.6764 16.6173 19.0175C16.6173 17.3586 15.2725 16.0138 13.6136 16.0138C11.9547 16.0138 10.6099 17.3586 10.6099 19.0175C10.6099 20.6764 11.9547 22.0213 13.6136 22.0213Z" fill="#664E27"/>
<path d="M27.7915 26.8873C24.3072 25.9862 20.5826 26.647 17.6389 28.6896C16.918 29.2302 18.2997 31.0925 19.0206 30.612C20.943 29.2302 24.0669 28.3291 27.2509 29.1702C28.0318 29.3504 28.6927 27.1877 27.7915 26.8873Z" fill="#664E27"/>
</svg>
