<svg width="42" height="42" viewBox="0 0 42 42" fill="none" xmlns="http://www.w3.org/2000/svg">
<path d="M21 39C30.9411 39 39 30.9411 39 21C39 11.0589 30.9411 3 21 3C11.0589 3 3 11.0589 3 21C3 30.9411 11.0589 39 21 39Z" fill="#FFDD67"/>
<path d="M17.1 18.84C17.94 20.58 16.86 22.8 14.76 23.82C12.66 24.78 10.26 24.18 9.42002 22.44C8.94002 21.3 16.62 17.7 17.1 18.84ZM24.9 18.84C24.06 20.58 25.14 22.8 27.24 23.82C29.34 24.78 31.74 24.18 32.58 22.44C33.06 21.3 25.38 17.7 24.9 18.84Z" fill="#664E27"/>
<path d="M15.4203 13.68C13.8003 15.66 9.90028 17.46 7.32028 17.46C6.96028 17.46 6.90028 18.78 7.32028 18.78C10.2603 18.78 14.5203 16.8 16.4403 14.52C16.7403 14.22 15.6603 13.44 15.4203 13.68ZM26.5803 13.68C28.2003 15.66 32.1003 17.46 34.6803 17.46C35.0403 17.46 35.1003 18.78 34.6803 18.78C31.7403 18.78 27.4803 16.8 25.5603 14.52C25.2603 14.22 26.3403 13.44 26.5803 13.68Z" fill="#917524"/>
<path d="M26.16 29.64C22.92 28.14 19.08 28.14 15.84 29.64C15.06 30 16.02 32.16 16.86 31.74C19.02 30.72 22.2 30.36 25.2 31.74C25.98 32.1 27 30.06 26.16 29.64Z" fill="#664E27"/>
</svg>
