<svg width="24" height="22" fill="none" xmlns="http://www.w3.org/2000/svg"><path d="M12 8.8v12.16M8.16 6.88A2.016 2.016 0 016.132 8.8H2.4A1.92 1.92 0 01.48 6.88M15.84 6.88a2.016 2.016 0 01-2.029 1.92H10.19A2.016 2.016 0 018.16 6.88" stroke="#0C4DB9" stroke-width="1.5" stroke-linecap="round" stroke-linejoin="round"/><path d="M23.52 6.88A1.92 1.92 0 0121.6 8.8h-3.731a2.016 2.016 0 01-2.03-1.92" stroke="#0C4DB9" stroke-width="1.5" stroke-linecap="round" stroke-linejoin="round"/><path d="M.48 6.88C.48 4.32 5.64.48 12 .48c6.362 0 11.52 3.2 11.52 6.4" stroke="#0C4DB9" stroke-width="1.5" stroke-linecap="round" stroke-linejoin="round"/><path d="M8.16 6.88c0-5.453 1.722-6.4 3.84-6.4 2.119 0 3.84.947 3.84 6.4M9.44 16.48h5.12M9.44 20.96L8.16 18.4H4.32l-.64-3.84M4.32 18.4l-1.28 2.56M14.56 20.96l1.28-2.56h3.84l.64-3.84M19.68 18.4l1.28 2.56" stroke="#0C4DB9" stroke-width="1.5" stroke-linecap="round" stroke-linejoin="round"/></svg>