<svg width="24" height="20" fill="none" xmlns="http://www.w3.org/2000/svg"><path d="M19.16 5.563h-6.617a.992.992 0 01-.991-.992V.991A.991.991 0 0112.543 0h6.617a.992.992 0 01.991.992v3.58a.992.992 0 01-.991.991zM12.543.908a.09.09 0 00-.09.084v3.58a.09.09 0 00.09.09h6.617a.09.09 0 00.09-.09V.991a.09.09 0 00-.09-.084h-6.617z" fill="#0C4DB9"/><path d="M11.462 5.563H4.84a.992.992 0 01-.991-.992V.991A.997.997 0 014.84 0h6.622a.991.991 0 01.992.992v3.58a.991.991 0 01-.992.991zM4.84.908a.084.084 0 00-.084.084v3.58a.09.09 0 00.084.09h6.622a.09.09 0 00.09-.09V.991a.09.09 0 00-.09-.084H4.84zM19.16 14.885h-6.617a.992.992 0 01-.991-.992v-3.58a.991.991 0 01.991-.991h6.617a.992.992 0 01.991.992v3.58a.992.992 0 01-.991.991zm-6.617-4.661a.09.09 0 00-.09.09v3.58a.09.09 0 00.09.083h6.617a.09.09 0 00.09-.084v-3.58a.09.09 0 00-.09-.089h-6.617z" fill="#0C4DB9"/><path d="M11.462 14.885H4.84a.998.998 0 01-.991-.992v-3.58a.992.992 0 01.991-.991h6.622a.991.991 0 01.992.992v3.58a.991.991 0 01-.992.991zM4.84 10.224a.09.09 0 00-.084.09v3.58a.084.084 0 00.084.083h6.622a.09.09 0 00.09-.084v-3.58a.09.09 0 00-.09-.089H4.84zM23.008 10.224h-6.616a.992.992 0 01-.992-.991v-3.58a.992.992 0 01.992-.992h6.616a.992.992 0 01.992.992v3.58a.991.991 0 01-.992.991zm-6.616-4.66a.09.09 0 00-.09.089v3.58a.09.09 0 00.09.09h6.616a.09.09 0 00.09-.09v-3.58a.09.09 0 00-.09-.09h-6.616z" fill="#0C4DB9"/><path d="M15.311 10.224H8.695a.999.999 0 01-1.008-.991v-3.58a.997.997 0 01.997-.992H15.3a.991.991 0 01.992.992v3.58a.992.992 0 01-.98.991zm-6.616-4.66a.09.09 0 00-.09.089v3.58a.09.09 0 00.09.09h6.616a.09.09 0 00.09-.09v-3.58a.09.09 0 00-.09-.09H8.695z" fill="#0C4DB9"/><path d="M7.613 10.224H.992A.992.992 0 010 9.233v-3.58a.992.992 0 01.992-.992h6.621a.992.992 0 01.992.992v3.58a.992.992 0 01-.992.991zM.992 5.564a.09.09 0 00-.084.089v3.58a.09.09 0 00.084.09h6.621a.09.09 0 00.084-.09v-3.58a.09.09 0 00-.084-.09H.992zM23.008 19.546h-6.616a.992.992 0 01-.992-.991v-3.58a.997.997 0 01.992-.998h6.616a.997.997 0 01.992.998v3.58a.991.991 0 01-.992.991zm-6.616-4.66a.09.09 0 00-.09.089v3.58a.09.09 0 00.09.084h6.616a.09.09 0 00.09-.084v-3.58a.09.09 0 00-.09-.09h-6.616z" fill="#0C4DB9"/><path d="M15.31 19.546H8.695a.997.997 0 01-.997-.991v-3.58a.997.997 0 01.997-.998h6.617a.997.997 0 01.991.998v3.58a.992.992 0 01-.991.991zm-6.616-4.66a.09.09 0 00-.09.089v3.58a.09.09 0 00.09.084h6.617a.09.09 0 00.09-.084v-3.58a.09.09 0 00-.09-.09H8.694z" fill="#0C4DB9"/><path d="M7.613 19.546H.992A.997.997 0 010 18.555v-3.58a.997.997 0 01.992-.998h6.621a.997.997 0 01.992.998v3.58a.997.997 0 01-.992.991zm-6.621-4.66a.09.09 0 00-.084.089v3.58a.084.084 0 00.084.084h6.621a.084.084 0 00.084-.084v-3.58a.09.09 0 00-.084-.09H.992z" fill="#0C4DB9"/></svg>