<svg width="21" height="24" fill="none" xmlns="http://www.w3.org/2000/svg"><path d="M17.889 24.006H2.307a.454.454 0 01-.453-.454V.454A.454.454 0 012.307 0H17.89a.454.454 0 01.454.454v23.098a.454.454 0 01-.454.454zm-15.123-.908h14.675V.924H2.766v22.174z" fill="#0C4DB9"/><path d="M4.862 9.84a1.305 1.305 0 01-1.305-1.299V7.147a1.305 1.305 0 012.604 0V8.54a1.3 1.3 0 01-1.3 1.3zm0-3.09a.398.398 0 00-.398.397V8.54a.398.398 0 00.677.281.392.392 0 00.113-.28V7.146a.392.392 0 00-.392-.398zM4.862 20.864a1.305 1.305 0 01-1.305-1.3V18.17a1.305 1.305 0 012.604 0v1.395a1.3 1.3 0 01-1.3 1.3zm0-3.087a.39.39 0 00-.398.392v1.395a.397.397 0 00.677.281.392.392 0 00.113-.28v-1.396a.392.392 0 00-.392-.392z" fill="#0C4DB9"/><path d="M15.336 24.006H4.862a.454.454 0 01-.454-.454v-3.136a.454.454 0 01.454-.454.391.391 0 00.392-.398V18.17a.392.392 0 00-.392-.392.454.454 0 01-.454-.453V9.387a.448.448 0 01.454-.448.392.392 0 00.392-.397V7.147a.392.392 0 00-.392-.398.454.454 0 01-.454-.453V3.165a.454.454 0 01.454-.454h10.474a.454.454 0 01.453.454v20.387a.454.454 0 01-.453.454zM5.31 23.098h9.578V3.613H5.31v2.313a1.3 1.3 0 01.851 1.22v1.396a1.3 1.3 0 01-.851 1.22v7.192a1.294 1.294 0 01.851 1.215v1.395a1.3 1.3 0 01-.851 1.221v2.313z" fill="#0C4DB9"/><path d="M13.017 13.47H11.46a.454.454 0 010-.907h1.557a.454.454 0 010 .907zM19.737 24.006H.447a.454.454 0 110-.908h19.29a.453.453 0 110 .908z" fill="#0C4DB9"/></svg>