<svg width="24" height="17" fill="none" xmlns="http://www.w3.org/2000/svg"><path d="M15.61 16.785a.438.438 0 01-.31-.131l-1.809-1.808a.443.443 0 010-.623.454.454 0 01.629 0l1.49 1.497 7.336-7.33-7.335-7.325-1.492 1.497a.444.444 0 11-.628-.629L15.3.137a.454.454 0 01.623 0l7.953 7.941a.443.443 0 010 .623l-7.953 7.953a.437.437 0 01-.311.13z" fill="#0C4DB9"/><path d="M8.39 16.785a.437.437 0 01-.312-.131L.126 8.7A.431.431 0 010 8.39c0-.117.045-.229.126-.312L8.078.136a.437.437 0 01.623 0l2.524 2.524a.443.443 0 11-.623.623L8.417 1.07 1.065 8.39l7.325 7.33 7.324-7.33-3.408-3.409a.443.443 0 01.311-.753.437.437 0 01.312.13l3.725 3.72a.442.442 0 01.125.312.432.432 0 01-.125.31L8.7 16.655a.436.436 0 01-.311.13z" fill="#0C4DB9"/><path d="M17.189 11.607a.443.443 0 01-.311-.754l2.447-2.447-7.303-7.34-1.491 1.496a.445.445 0 01-.628-.628L11.71.13a.453.453 0 01.623 0l7.953 7.947a.442.442 0 010 .623l-2.759 2.731a.448.448 0 01-.338.175zM12.022 16.785a.436.436 0 01-.312-.131l-1.808-1.808a.443.443 0 010-.623.453.453 0 01.629 0l1.49 1.497 3.404-3.403a.44.44 0 01.654-.032.442.442 0 01-.032.654l-3.714 3.715a.437.437 0 01-.311.13z" fill="#0C4DB9"/></svg>