<svg width="18" height="17" viewBox="0 0 18 17" fill="none" xmlns="http://www.w3.org/2000/svg">
<path d="M10.3606 8.37077L17.1106 1.62077C17.2623 1.44364 17.3416 1.21579 17.3326 0.98276C17.3236 0.749727 17.227 0.528672 17.0621 0.36377C16.8972 0.198868 16.6761 0.102263 16.4431 0.0932621C16.2101 0.084261 15.9822 0.163526 15.8051 0.315217L9.05509 7.06522L2.30509 0.305958C2.12796 0.154267 1.90011 0.0750025 1.66708 0.0840035C1.43405 0.0930046 1.21299 0.189608 1.04809 0.354511C0.883188 0.519413 0.786583 0.740467 0.777582 0.973501C0.768581 1.20653 0.847846 1.43438 0.999537 1.61151L7.74954 8.37077L0.990278 15.1208C0.89335 15.2038 0.814628 15.3059 0.759051 15.4208C0.703473 15.5357 0.672241 15.6608 0.667316 15.7883C0.662391 15.9158 0.683877 16.043 0.730428 16.1618C0.776979 16.2806 0.847588 16.3885 0.937824 16.4788C1.02806 16.569 1.13597 16.6396 1.25479 16.6862C1.37361 16.7327 1.50077 16.7542 1.62829 16.7493C1.75581 16.7444 1.88093 16.7131 1.99581 16.6576C2.11068 16.602 2.21283 16.5233 2.29583 16.4263L9.05509 9.67633L15.8051 16.4263C15.9822 16.578 16.2101 16.6573 16.4431 16.6483C16.6761 16.6393 16.8972 16.5427 17.0621 16.3778C17.227 16.2129 17.3236 15.9918 17.3326 15.7588C17.3416 15.5258 17.2623 15.2979 17.1106 15.1208L10.3606 8.37077Z" fill="#0D0943" fill-opacity="0.4"/>
</svg>
