<svg width="24" height="22" fill="none" xmlns="http://www.w3.org/2000/svg"><path d="M1.585 21.446V3.106L3.545.39l1.663 2.342v18.715H1.585zM7.322 21.446V3.106L9.283.39l1.662 2.342v18.715H7.322zM18.792 21.446V3.106L20.752.39l1.663 2.342v18.715h-3.623zM13.055 21.446V3.106L15.02.39l1.657 2.342v18.715h-3.622zM22.415 9.22h1.358v2.264h-1.358M18.793 11.484h-2.115M18.793 9.22h-2.115M13.056 9.22h-2.11M13.056 11.484h-2.11M7.323 9.22H5.208M7.323 11.484H5.208" stroke="#0C4DB9" stroke-miterlimit="10"/><path d="M1.585 11.484H.227V9.22h1.358" stroke="#0C4DB9" stroke-miterlimit="10"/></svg>